<?xml version="1.0" encoding="utf-8"?>
<!-- Generator: Adobe Illustrator 16.0.0, SVG Export Plug-In . SVG Version: 6.00 Build 0)  -->
<!DOCTYPE svg PUBLIC "-//W3C//DTD SVG 1.1//EN" "http://www.w3.org/Graphics/SVG/1.1/DTD/svg11.dtd">
<svg version="1.1" id="Vrstva_1" xmlns="http://www.w3.org/2000/svg" xmlns:xlink="http://www.w3.org/1999/xlink" x="0px" y="0px"
	 width="236.207px" height="63.792px" viewBox="0 0 236.207 63.792" enable-background="new 0 0 236.207 63.792"
	 xml:space="preserve">
<g>
	<path fill-rule="evenodd" clip-rule="evenodd" fill="#FDFDFE" d="M48.275,22.417l-3.662-10.055
		c-0.573-1.613-0.573-1.667-0.573-2.05c0-0.82,0.765-1.12,3.06-1.23V8.29c-0.765,0-1.011,0-2.077,0.055
		c-1.311,0.082-2.322,0.109-2.869,0.109c-0.628,0-1.393-0.027-2.295-0.082C38.52,8.29,38.356,8.29,37.723,8.29v0.792
		c2.245,0.219,2.573,0.547,3.775,3.935l3.635,9.946c0.765,2.077,0.983,2.924,1.038,3.693l1.995,0.356c0-0.852,0.3-1.945,1.01-3.721
		l2.378-5.656c3.224-7.733,3.688-8.443,5.601-8.553V8.29c-0.492,0.028-0.601,0.028-1.448,0.082c-0.82,0.055-1.476,0.082-1.968,0.082
		c-0.437,0-1.12-0.027-1.994-0.082c-1.12-0.082-1.366-0.082-2.077-0.082v0.792c2.214,0.137,2.842,0.438,2.842,1.367
		c0,0.819,0,0.819-1.339,4.399L48.275,22.417z M59.054,22.881c0,2.377-0.191,2.705-1.666,2.815l-0.492,0.054v0.765
		c2.377-0.082,3.47-0.109,3.661-0.109c0.437,0,1.011,0.027,1.749,0.055c0.874,0.054,0.956,0.054,1.694,0.054V25.75l-0.546-0.054
		c-1.394-0.11-1.612-0.465-1.612-2.815v-5.546c0-2.378,0.191-2.733,1.612-2.842l0.601-0.055V13.7c-0.738,0-0.902,0-1.64,0.028
		c-0.847,0.054-1.475,0.082-1.858,0.082c-0.273,0-0.956-0.028-1.831-0.082c-0.792-0.028-1.065-0.028-1.83-0.028v0.738l0.492,0.055
		c1.502,0.136,1.666,0.437,1.666,2.842V22.881z M80.9,13.7c-0.683,0-0.929,0-1.448,0.028c-0.765,0.054-1.339,0.082-1.448,0.082
		c-0.192,0-0.711-0.028-1.449-0.082C75.927,13.7,75.544,13.7,74.752,13.7v0.765c2.049,0.082,2.486,0.328,2.678,1.558
		c0.164,1.011,0.218,3.006,0.246,7.077l-6.285-7.76c-0.546-0.683-0.902-1.257-1.12-1.722c-0.656,0.11-1.093,0.164-1.886,0.164
		c-0.3,0-0.409,0-1.912-0.054l-0.957-0.055v0.792c1.449,0.11,1.831,0.246,2.077,0.684c0.164,0.327,0.219,1.038,0.219,3.224
		c0,4.317-0.028,4.945-0.137,5.82c-0.164,1.093-0.628,1.448-2.049,1.557v0.765c0.71,0,0.901,0,1.639-0.054
		c0.601-0.028,1.066-0.055,1.312-0.055c0.136,0,0.683,0.027,1.393,0.055c0.547,0.027,0.957,0.054,1.858,0.054V25.75
		c-2.104-0.109-2.459-0.328-2.65-1.748c-0.164-1.558-0.273-3.443-0.355-7.815l6.503,8.06c0.902,1.148,1.175,1.531,1.448,2.268
		l2.159,0.278c-0.219-0.66-0.274-1.07-0.274-2.573c0-3.333,0.137-7.35,0.301-8.279c0.138-1.038,0.684-1.448,1.94-1.476V13.7z
		 M97.362,13.7c-0.683,0-0.929,0-1.448,0.028c-0.765,0.054-1.339,0.082-1.447,0.082c-0.191,0-0.71-0.028-1.448-0.082
		C92.389,13.7,92.007,13.7,91.215,13.7v0.765c2.049,0.082,2.485,0.328,2.677,1.558c0.164,1.011,0.219,3.006,0.246,7.077l-6.284-7.76
		c-0.547-0.683-0.902-1.257-1.121-1.722c-0.655,0.11-1.093,0.164-1.885,0.164c-0.301,0-0.41,0-1.913-0.054l-0.956-0.055v0.792
		c1.448,0.11,1.831,0.246,2.077,0.684c0.164,0.327,0.218,1.038,0.218,3.224c0,4.317-0.027,4.945-0.136,5.82
		c-0.164,1.093-0.629,1.448-2.05,1.557v0.765c0.711,0,0.901,0,1.64-0.054c0.601-0.028,1.064-0.055,1.311-0.055
		c0.138,0,0.684,0.027,1.395,0.055c0.546,0.027,0.956,0.054,1.857,0.054V25.75c-2.104-0.109-2.459-0.328-2.65-1.748
		c-0.164-1.558-0.273-3.443-0.355-7.815l6.503,8.06c0.902,1.148,1.176,1.531,1.449,2.268l2.158,0.278
		c-0.218-0.66-0.273-1.07-0.273-2.573c0-3.333,0.138-7.35,0.302-8.279c0.136-1.038,0.683-1.448,1.938-1.476V13.7z M107.076,17.307
		c-0.218,1.749-0.546,2.022-2.432,2.022h-0.956v-2.732c0-1.858,0.055-1.913,1.53-1.913c3.142,0,3.688,0.383,4.372,3.006h0.955
		c-0.218-1.367-0.3-2.323-0.3-3.361c0-0.301,0-0.574,0.055-1.12c-0.901,0.546-1.229,0.573-5.956,0.573c-1.887,0-2.569,0-5.603-0.109
		v0.765l0.465,0.055c1.53,0.136,1.694,0.437,1.694,2.842v5.546c0,2.377-0.191,2.705-1.694,2.842l-0.465,0.027v0.765
		c2.951-0.082,3.498-0.082,5.629-0.082c5.056,0,5.492,0.055,6.148,0.633c0.108-1.589,0.354-3.42,0.711-5.114h-0.957
		c-0.902,3.033-1.557,3.525-4.7,3.525c-1.885,0-1.885,0-1.885-2.514v-2.732h0.956c1.804,0,2.214,0.355,2.405,2.158h0.847
		c-0.082-1.065-0.109-1.639-0.109-2.568c0-0.82,0.027-1.448,0.109-2.514H107.076z M104.207,12.362l4.454-2.76
		c0.41-0.246,0.547-0.465,0.547-0.793c0-0.655-0.629-1.311-1.284-1.311c-0.328,0-0.465,0.082-0.848,0.519l-3.688,4.345H104.207z
		 M128.744,17.389c-0.164-1.312-0.219-2.158-0.219-3.279c0-0.164,0-0.492,0.028-0.901c-0.41,0.464-0.766,0.655-1.202,0.655
		c-0.192,0-0.465-0.027-0.793-0.109c-0.983-0.219-1.612-0.301-2.269-0.301c-2.377,0-3.906,1.421-3.906,3.58
		c0,1.093,0.409,2.022,1.175,2.596c0.656,0.491,1.393,0.874,3.552,1.803c1.476,0.629,2.049,1.257,2.049,2.241
		c0,1.311-0.929,2.131-2.377,2.131c-2.076,0-3.224-1.175-3.825-3.935h-0.875c0.082,0.929,0.082,1.284,0.082,2.377
		c0,0.984,0,1.503-0.054,2.464c0.574-0.387,0.874-0.496,1.284-0.496c0.19,0,0.464,0.027,0.71,0.082
		c2.104,0.523,2.104,0.523,3.033,0.523c2.705,0,4.509-1.562,4.509-3.857c0-1.803-0.847-2.787-3.306-3.907
		c-2.597-1.175-2.651-1.202-3.115-1.64c-0.301-0.3-0.492-0.765-0.492-1.202c0-1.065,0.82-1.803,2.022-1.803
		c1.529,0,2.596,1.038,3.087,2.978H128.744z M138.95,18.455l2.568-2.405c1.585-1.366,1.995-1.585,3.225-1.612V13.7h-0.383
		c-0.41,0-0.437,0-1.066,0.028c-0.519,0.027-0.955,0.054-1.257,0.054c-0.272,0-0.683,0-1.146-0.027
		c-0.984-0.055-1.066-0.055-1.831-0.055v0.738l0.628,0.055c0.793,0.027,1.012,0.109,1.012,0.355c0,0.301-0.301,0.71-1.476,1.995
		l-3.088,3.306v-2.814c0-2.378,0.19-2.733,1.611-2.842l0.602-0.055V13.7h-0.464c-0.548,0-0.602,0-1.258,0.028
		c-0.819,0.054-1.421,0.082-1.803,0.082c-0.328,0-0.93-0.028-1.693-0.055c-0.93-0.055-1.148-0.055-1.941-0.055v0.738l0.465,0.055
		c1.53,0.136,1.694,0.437,1.694,2.842v5.546c0,2.377-0.191,2.678-1.694,2.815l-0.465,0.054v0.765c0.738,0,0.848,0,1.886-0.054
		c0.738-0.028,1.312-0.055,1.721-0.055c0.438,0,1.039,0.027,1.723,0.055c0.956,0.054,1.011,0.054,1.775,0.054V25.75l-0.573-0.054
		c-0.464-0.028-0.984-0.192-1.202-0.383c-0.274-0.273-0.383-0.765-0.383-1.858c0-1.913,0.026-2.049,0.547-2.568l0.492-0.547
		l3.333,4.536c0.655,0.847,0.711,1.011,0.711,1.639c0,0.087,0,0.223-0.028,0.387c0.41-0.382,0.601-0.469,1.23-0.469l3.168,0.082
		V25.75c-1.174-0.054-1.338-0.164-2.677-1.803L138.95,18.455z M157.161,21.898c-0.902,3.005-1.668,3.606-4.508,3.606
		c-1.313,0-1.313,0-1.313-2.65v-5.519c0-1.285,0.055-1.913,0.219-2.186c0.191-0.356,0.766-0.629,1.422-0.656l0.682-0.028v-0.792
		c-1.203,0.055-1.283,0.055-1.693,0.055c-1.066,0.054-1.857,0.082-1.969,0.082c-0.408,0-0.982-0.028-1.828-0.055
		c-0.574-0.027-1.039-0.055-1.367-0.055h-0.41v0.738l0.465,0.055c1.475,0.109,1.693,0.464,1.693,2.842v5.546
		c0,2.377-0.164,2.678-1.693,2.815l-0.465,0.054v0.765c2.979-0.082,3.553-0.082,5.438-0.082c4.48,0,4.672,0.028,5.574,0.633
		c0.027-1.452,0.219-2.928,0.656-5.168H157.161z M167.421,17.307c-0.219,1.749-0.547,2.022-2.432,2.022h-0.957v-2.732
		c0-1.858,0.057-1.913,1.531-1.913c3.141,0,3.688,0.383,4.371,3.006h0.957c-0.219-1.367-0.301-2.323-0.301-3.361
		c0-0.301,0-0.574,0.055-1.12c-0.902,0.546-1.23,0.573-5.957,0.573c-1.885,0-2.568,0-5.602-0.109v0.765l0.465,0.055
		c1.529,0.136,1.693,0.437,1.693,2.842v5.546c0,2.377-0.189,2.705-1.693,2.842l-0.465,0.027v0.765
		c2.951-0.082,3.498-0.082,5.629-0.082c5.055,0,5.492,0.055,6.148,0.633c0.109-1.589,0.355-3.42,0.711-5.114h-0.957
		c-0.902,3.033-1.557,3.525-4.701,3.525c-1.885,0-1.885,0-1.885-2.514v-2.732h0.957c1.803,0,2.213,0.355,2.404,2.158h0.848
		c-0.082-1.065-0.109-1.639-0.109-2.568c0-0.82,0.027-1.448,0.109-2.514H167.421z M177.735,20.777h0.082l1.121,0.028
		c3.252,0,5.41-1.64,5.41-4.099c0-2.104-1.313-3.088-4.072-3.088l-1.146,0.028c-2.35,0.136-2.486,0.136-3.088,0.136
		c-0.41,0-0.766,0-1.201-0.027l-1.34-0.055l-0.711-0.027v0.765l0.465,0.055c1.504,0.136,1.693,0.464,1.693,2.842v5.546
		c0,1.257-0.055,1.913-0.219,2.186c-0.191,0.355-0.791,0.629-1.475,0.656l-0.465,0.027v0.765c0.656,0,0.902-0.027,1.641-0.054
		c0.846-0.028,1.475-0.055,1.803-0.055c0.109,0,0.955,0.027,2.131,0.082c0.629,0,0.711,0,1.885,0.027V25.75l-0.928-0.027
		c-0.547-0.027-1.066-0.219-1.285-0.519c-0.246-0.301-0.301-0.82-0.301-2.323V20.777z M177.735,16.323
		c0.027-1.038,0.027-1.038,0.055-1.147c0.082-0.41,0.465-0.601,1.34-0.601c1.639,0,2.295,0.656,2.295,2.268
		c0,2.104-1.148,3.06-3.689,3.06V16.323z M192.942,20.231l-2.295-3.88c-0.684-1.257-0.684-1.257-0.684-1.448
		c0-0.356,0.301-0.438,1.748-0.465v-0.765c-0.602,0.027-0.766,0.027-1.475,0.055c-0.793,0.054-1.395,0.082-1.721,0.082
		c-0.301,0-0.932-0.028-1.777-0.082c-0.684-0.028-0.875-0.028-1.508-0.055v0.765c1.344,0.109,1.371,0.137,2.574,2.049l2.268,3.826
		c0.545,0.902,0.627,1.147,0.627,1.612v0.464v0.492c0,1.121-0.082,1.913-0.217,2.186c-0.219,0.355-0.711,0.601-1.449,0.629
		l-0.846,0.054v0.765c0.928-0.027,1.064-0.027,1.584-0.054c1.174-0.028,2.021-0.055,2.268-0.055c0.328,0,1.094,0.027,2.131,0.055
		c0.547,0.027,0.656,0.027,1.641,0.054V25.75l-0.848-0.054c-1.475-0.082-1.693-0.438-1.693-2.815v-0.492c0-1.202,0-1.202,0.6-2.186
		l1.969-3.142c1.584-2.377,1.748-2.514,3.061-2.623v-0.765c-0.602,0-0.82,0.027-1.285,0.055c-0.629,0.054-1.094,0.082-1.229,0.082
		c-0.029,0-0.52-0.028-1.422-0.082c-0.41,0-0.93-0.028-1.529-0.055v0.765c1.803,0.082,2.049,0.137,2.049,0.574
		c0,0.3-0.246,0.847-0.875,2.049L192.942,20.231z"/>
	<path fill-rule="evenodd" clip-rule="evenodd" fill="#FDFDFE" d="M35.941,46.104c-2.337,7.461-4.432,9.15-11.396,9.15
		c-2.289,0-3.166-0.281-3.653-1.079c-0.39-0.751-0.39-0.751-0.39-5.537V34.467c0-3.566,0.195-4.786,0.828-5.583
		c0.682-0.751,2.338-1.361,4.043-1.455l1.022-0.047v-1.407c-1.412,0-2.094,0.046-3.652,0.093c-2.387,0.141-4.14,0.188-4.871,0.188
		c-1.022,0-2.581-0.047-4.577-0.188c-2.143-0.093-2.679-0.093-3.994-0.093v1.407l0.633,0.047c1.705,0.141,2.971,0.563,3.702,1.173
		c0.973,0.798,1.168,1.736,1.168,5.865v14.265c0,3.754-0.146,4.833-0.828,5.63c-0.681,0.751-2.094,1.268-4.042,1.455l-0.633,0.047
		v1.408c7.013-0.188,8.913-0.235,12.078-0.235c11.689,0,13.345,0.141,14.66,1.228c0.048-3.292,0.535-7.093,1.607-12.161H35.941z
		 M53.961,41.458c-0.39,3.003-0.974,3.472-4.334,3.472h-1.705v-4.692c0-3.191,0.097-3.285,2.727-3.285
		c5.601,0,6.575,0.657,7.793,5.162h1.704c-0.389-2.346-0.535-3.989-0.535-5.772c0-0.516,0-0.985,0.097-1.923
		c-1.607,0.938-2.192,0.985-10.617,0.985c-3.361,0-4.578,0-9.984-0.188v1.314l0.828,0.094c2.727,0.235,3.019,0.751,3.019,4.88v9.525
		c0,4.082-0.341,4.645-3.019,4.88l-0.828,0.047v1.314c5.26-0.141,6.234-0.141,10.032-0.141c9.01,0,9.79,0.094,10.959,1.087
		c0.194-2.729,0.633-5.873,1.266-8.782h-1.705c-1.607,5.208-2.776,6.053-8.377,6.053c-3.36,0-3.36,0-3.36-4.317V46.48h1.705
		c3.214,0,3.944,0.61,4.285,3.706h1.51c-0.146-1.83-0.195-2.815-0.195-4.41c0-1.408,0.049-2.487,0.195-4.317H53.961z M83.134,49.342
		c-1.169,3.566-3.557,5.443-6.965,5.443c-1.997,0-3.75-0.751-4.773-2.065c-1.314-1.642-2.094-4.27-2.094-7.038
		c0-2.534,0.633-5.068,1.656-6.71c0.974-1.595,2.776-2.487,4.87-2.487c3.361,0,5.066,1.596,6.332,5.959h1.656
		c-0.195-1.689-0.293-2.909-0.293-4.598c0-0.985,0.049-1.689,0.195-3.238c-0.584,0.845-1.12,1.126-1.996,1.126
		c-0.293,0-0.78-0.094-1.316-0.187c-3.117-0.704-3.847-0.798-5.552-0.798c-6.915,0-11.299,4.505-11.299,11.59
		c0,6.944,4.237,11.457,10.715,11.457c2.776,0,5.211-0.853,7.159-2.495c1.947-1.595,2.775-3.097,3.36-5.959H83.134z M95.504,44.603
		v-3.285c0-3.894,0.39-4.504,2.873-4.692l0.975-0.094v-1.267c-1.218,0-1.364,0-2.825,0.047c-1.461,0.094-2.581,0.141-3.507,0.141
		c-0.779,0-1.802-0.047-3.068-0.094c-1.947-0.094-2.045-0.094-3.263-0.094v1.267l0.828,0.094c2.727,0.235,3.019,0.704,3.019,4.692
		v9.713c0,4.035-0.34,4.645-3.019,4.833l-0.828,0.094v1.314c1.315,0,1.802-0.047,3.214-0.094c1.413-0.047,2.484-0.094,3.069-0.094
		c0.438,0,1.654,0.047,3.359,0.094c1.12,0.047,1.656,0.094,3.021,0.094v-1.314l-0.975-0.094c-2.483-0.141-2.873-0.798-2.873-4.833
		v-4.692h9.447v4.692c0,4.082-0.34,4.645-2.97,4.833l-0.877,0.094v1.314c1.461,0,1.948-0.047,3.361-0.094
		c1.509-0.047,2.629-0.094,3.115-0.094c0.635,0,1.705,0.047,3.117,0.094c1.413,0.094,1.754,0.094,3.069,0.094v-1.314l-0.975-0.094
		c-2.483-0.188-2.873-0.798-2.873-4.833v-9.713c0-3.941,0.341-4.504,2.873-4.692l0.975-0.094v-1.267c-1.268,0-1.413,0-2.874,0.047
		c-1.412,0.094-2.532,0.141-3.313,0.141c-0.729,0-1.802-0.047-3.115-0.094c-1.755-0.094-1.997-0.094-3.361-0.094v1.267l0.877,0.094
		c2.63,0.188,2.97,0.751,2.97,4.692v3.285H95.504z M129.352,34.749c-7.354,0-12.37,4.739-12.37,11.684
		c0,6.756,4.773,11.363,11.786,11.363c7.402,0,12.272-4.7,12.272-11.786C141.041,39.16,136.463,34.749,129.352,34.749z
		 M129.158,36.485c3.944,0,6.186,3.566,6.186,9.807c0,6.241-2.289,9.76-6.283,9.76c-4.042,0-6.331-3.566-6.331-9.76
		C122.729,39.91,124.969,36.485,129.158,36.485z M155.507,52.298l-4.627-12.2c-0.684-1.877-0.73-1.924-0.73-2.393
		c0-0.844,0.779-1.079,3.846-1.126v-1.314c-1.266,0-1.703,0-2.971,0.047c-1.801,0.094-3.164,0.141-3.604,0.141
		c-0.779,0-1.703-0.047-2.825-0.094c-1.803-0.094-1.948-0.094-3.125-0.094v1.314c2.979,0.188,3.125,0.282,4.78,4.551l4.531,11.919
		c0.875,2.346,1.217,3.472,1.217,4.324l3.361,0.61c0-1.18,0.291-2.307,1.217-4.465c0.926-2.205,1.949-4.551,2.922-6.71
		c4.238-9.666,4.676-10.229,7.063-10.229v-1.361c-0.975,0.047-1.316,0.047-2.193,0.141c-1.021,0.047-1.801,0.094-2.189,0.094
		c-0.439,0-1.17-0.047-2.24-0.094c-1.316-0.094-1.754-0.094-3.021-0.094v1.314l1.072,0.047c1.852,0.047,2.533,0.422,2.533,1.361
		c0,0.797-0.244,1.595-1.559,5.114L155.507,52.298z M171.384,51.031c0,4.082-0.342,4.645-2.973,4.833l-0.877,0.094v1.314
		c4.238-0.141,6.188-0.188,6.527-0.188c0.779,0,1.801,0.047,3.117,0.094c1.559,0.094,1.705,0.094,3.02,0.094v-1.314l-0.975-0.094
		c-2.484-0.188-2.873-0.798-2.873-4.833v-9.525c0-4.082,0.34-4.692,2.873-4.88l1.072-0.094v-1.267c-1.316,0-1.607,0-2.924,0.047
		c-1.51,0.094-2.629,0.141-3.311,0.141c-0.488,0-1.705-0.047-3.264-0.141c-1.412-0.047-1.898-0.047-3.264-0.047v1.267l0.877,0.094
		c2.68,0.235,2.973,0.751,2.973,4.88V51.031z M202.601,49.342c-1.168,3.566-3.555,5.443-6.963,5.443
		c-1.998,0-3.752-0.751-4.773-2.065c-1.314-1.642-2.094-4.27-2.094-7.038c0-2.534,0.633-5.068,1.656-6.71
		c0.973-1.595,2.775-2.487,4.869-2.487c3.359,0,5.064,1.596,6.33,5.959h1.656c-0.193-1.689-0.291-2.909-0.291-4.598
		c0-0.985,0.047-1.689,0.195-3.238c-0.586,0.845-1.121,1.126-1.998,1.126c-0.291,0-0.779-0.094-1.314-0.187
		c-3.117-0.704-3.848-0.798-5.553-0.798c-6.916,0-11.299,4.505-11.299,11.59c0,6.944,4.238,11.457,10.715,11.457
		c2.775,0,5.211-0.853,7.16-2.495c1.947-1.595,2.775-3.097,3.359-5.959H202.601z M221.011,41.458
		c-0.391,3.003-0.975,3.472-4.334,3.472h-1.705v-4.692c0-3.191,0.098-3.285,2.727-3.285c5.602,0,6.576,0.657,7.793,5.162h1.705
		c-0.391-2.346-0.537-3.989-0.537-5.772c0-0.516,0-0.985,0.1-1.923c-1.609,0.938-2.193,0.985-10.617,0.985
		c-3.361,0-4.578,0-9.984-0.188v1.314l0.826,0.094c2.729,0.235,3.021,0.751,3.021,4.88v9.525c0,4.082-0.342,4.645-3.021,4.88
		l-0.826,0.047v1.314c5.258-0.141,6.232-0.141,10.031-0.141c9.01,0,9.789,0.094,10.959,1.087c0.195-2.729,0.633-5.873,1.266-8.782
		h-1.705c-1.605,5.208-2.775,6.053-8.377,6.053c-3.359,0-3.359,0-3.359-4.317V46.48h1.705c3.215,0,3.943,0.61,4.285,3.706h1.51
		c-0.146-1.83-0.195-2.815-0.195-4.41c0-1.408,0.049-2.487,0.195-4.317H221.011z"/>
</g>
<g>
</g>
<g>
</g>
<g>
</g>
<g>
</g>
<g>
</g>
<g>
</g>
</svg>
