<?xml version="1.0" encoding="utf-8"?>
<!-- Generator: Adobe Illustrator 16.0.0, SVG Export Plug-In . SVG Version: 6.00 Build 0)  -->
<!DOCTYPE svg PUBLIC "-//W3C//DTD SVG 1.1//EN" "http://www.w3.org/Graphics/SVG/1.1/DTD/svg11.dtd">
<svg version="1.1" xmlns="http://www.w3.org/2000/svg" xmlns:xlink="http://www.w3.org/1999/xlink" x="0px" y="0px"
	 width="424.039px" height="143.712px" viewBox="0 0 424.039 143.712" enable-background="new 0 0 424.039 143.712"
	 xml:space="preserve">
<g id="cdr_x5F_layer1" display="none">
</g>
<g id="cdr_x5F_layer2">
	<g display="none">
		<path display="inline" fill-rule="evenodd" clip-rule="evenodd" fill="#C6C184" d="M16.609,55.287
			c0.407,2.286,1.139,4.333,2.166,6.145c1.037,1.819,2.333,3.358,3.897,4.633c1.556,1.273,3.332,2.25,5.315,2.917
			c1.989,0.678,4.138,1.01,6.452,1.02c1.575-0.018,3.037-0.167,4.37-0.474c1.332-0.3,2.49-0.66,3.481-1.073
			c0.991-0.423,1.769-0.817,2.315-1.187c0.545-0.377,0.825-0.641,0.832-0.799c0-0.079-0.037-0.124-0.12-0.142
			c-0.074-0.017-0.186-0.017-0.324-0.017c-0.167,0.007-0.427,0.104-0.796,0.299c-0.361,0.184-0.824,0.421-1.397,0.701
			c-0.584,0.282-1.269,0.563-2.066,0.845c-0.795,0.281-1.711,0.518-2.749,0.703c-1.036,0.193-2.203,0.291-3.49,0.299
			c-2.213-0.008-4.268-0.333-6.166-0.975c-1.898-0.651-3.574-1.573-5.045-2.778c-1.472-1.212-2.676-2.654-3.621-4.342
			c-0.944-1.689-1.574-3.577-1.888-5.669c1.871-0.219,3.648-0.696,5.341-1.441c1.695-0.739,3.259-1.714,4.713-2.936
			c1.139-0.975,2.157-2.021,3.055-3.139c0.89-1.125,1.647-2.258,2.268-3.418c0.621-1.161,1.083-2.286,1.408-3.376
			c0.323-1.09,0.491-2.083,0.491-2.988c0-1.432-0.362-2.513-1.065-3.262c-0.704-0.737-1.731-1.115-3.102-1.115
			c-0.786,0-1.657,0.166-2.62,0.51c-0.954,0.335-1.943,0.835-2.962,1.503c-1.018,0.66-2,1.476-2.962,2.461
			c-0.963,0.975-1.833,2.101-2.621,3.384c-2.11,3.48-3.165,7.33-3.165,11.549v1.162c-1.25,0-2.324-0.283-3.241-0.826
			c-0.906-0.546-1.61-1.346-2.11-2.393c-0.501-1.055-0.75-2.338-0.76-3.85c0-1.538,0.278-3.103,0.825-4.702
			c0.545-1.59,1.352-3.173,2.425-4.729c1.074-1.565,2.398-3.059,3.972-4.491c1.74-1.564,3.563-2.893,5.48-3.963
			c1.917-1.074,3.842-1.883,5.758-2.437c1.917-0.545,3.74-0.825,5.481-0.825c2.74,0.01,4.832,0.624,6.295,1.836
			c1.452,1.214,2.193,2.98,2.202,5.282c0,0.871-0.157,1.988-0.481,3.333c-0.333,1.345-0.823,2.864-1.49,4.561
			c-0.667,1.688-1.519,3.499-2.537,5.415c-1.027,1.916-2.231,3.893-3.619,5.914c-1.399,2.023-2.981,4.034-4.759,6.038
			c-1.01,1.118-1.917,2.066-2.731,2.831c-0.806,0.765-1.454,1.379-1.925,1.846c-0.473,0.475-0.724,0.836-0.733,1.072
			c0.009,0.08,0.065,0.157,0.186,0.22c0.111,0.063,0.259,0.097,0.426,0.097c0.212,0,0.602-0.079,1.167-0.255
			c0.565-0.176,1.269-0.457,2.102-0.835c0.843-0.387,1.768-0.896,2.805-1.537c1.028-0.634,2.11-1.408,3.258-2.33
			c1.472-1.204,3.064-2.698,4.768-4.5c1.712-1.811,3.582-3.877,5.628-6.224c2.037-2.337,4.295-4.912,6.768-7.734
			c1.638-1.871,3.24-3.656,4.794-5.353c1.564-1.706,3.139-3.278,4.741-4.729c1.592-1.451,3.268-2.725,5.018-3.841
			c0.462-0.29,0.87-0.527,1.221-0.694c0.352-0.167,0.62-0.308,0.814-0.431c0.194-0.114,0.297-0.254,0.297-0.405
			c0-0.034-0.037-0.078-0.111-0.123c-0.074-0.051-0.168-0.078-0.278-0.087c-0.703-0.01-1.815,0.501-3.314,1.538
			c-1.509,1.038-3.398,2.646-5.665,4.825c-2.27,2.179-4.907,4.984-7.906,8.403c-2.611,2.996-5.027,5.765-7.231,8.297
			s-4.268,4.789-6.193,6.758c-1.926,1.97-3.777,3.622-5.554,4.94c-1.779,1.318-3.547,2.268-5.296,2.839
			c3.065-2.672,5.73-5.301,7.99-7.893c2.259-2.594,4.128-5.105,5.61-7.524c1.48-2.425,2.583-4.72,3.314-6.882
			c0.722-2.161,1.084-4.157,1.084-5.968c-0.01-3.174-0.909-5.563-2.694-7.172c-1.787-1.617-4.408-2.426-7.86-2.426
			c-1.462,0-2.981,0.176-4.537,0.536c-1.565,0.352-3.139,0.878-4.712,1.581c-1.574,0.695-3.12,1.557-4.62,2.577
			c-1.509,1.019-2.944,2.195-4.295,3.532c-1.499,1.485-2.758,3.007-3.768,4.57c-1.018,1.557-1.777,3.129-2.296,4.694
			c-0.508,1.572-0.768,3.102-0.768,4.604c0.01,1.644,0.295,3.051,0.871,4.237c0.573,1.177,1.389,2.091,2.442,2.741
			C13.878,54.901,15.137,55.243,16.609,55.287z M17.609,54.18c-0.028-0.395-0.056-0.746-0.074-1.062
			c-0.028-0.318-0.037-0.599-0.037-0.837c0-1.396,0.184-2.829,0.536-4.288c0.361-1.469,0.889-2.891,1.575-4.289
			c0.684-1.39,1.519-2.682,2.499-3.869c0.973-1.177,1.981-2.162,3.018-2.952c1.038-0.79,2.047-1.38,3.027-1.775
			c0.981-0.404,1.87-0.598,2.675-0.598c0.945,0,1.667,0.237,2.157,0.694c0.482,0.467,0.732,1.15,0.732,2.047
			c0.009,0.766-0.25,1.76-0.769,2.98c-0.518,1.222-1.323,2.584-2.425,4.096c-1.092,1.512-2.509,3.086-4.249,4.737
			c-1.667,1.557-3.213,2.77-4.648,3.631C20.192,53.548,18.858,54.048,17.609,54.18z M45.387,59.875l6.721-8.543
			c0.223-0.271,0.379-0.51,0.472-0.721c0.092-0.21,0.139-0.352,0.139-0.439c0-0.13-0.092-0.237-0.288-0.308
			c-0.194-0.08-0.491-0.113-0.878-0.113c-0.435,0-0.796,0.044-1.083,0.131c-0.286,0.08-0.545,0.221-0.769,0.415
			c-0.232,0.192-0.463,0.446-0.722,0.764c-0.25,0.316-0.556,0.712-0.925,1.168c-1.212,1.486-2.249,2.805-3.12,3.956
			c-0.871,1.151-1.537,2.179-2,3.094c-0.472,0.914-0.703,1.766-0.712,2.549c0,0.747,0.204,1.318,0.62,1.714
			c0.407,0.396,1.018,0.598,1.824,0.606c0.861,0,1.981-0.413,3.36-1.249c1.379-0.834,3-2.1,4.86-3.813
			c1.443-1.347,2.536-2.427,3.277-3.236c0.739-0.799,1.11-1.326,1.11-1.563c0-0.213-0.11-0.317-0.334-0.317
			c-0.138,0-0.378,0.185-0.721,0.544c-0.343,0.361-0.833,0.88-1.481,1.564c-0.647,0.687-1.508,1.513-2.574,2.479
			c-1.75,1.557-3.221,2.709-4.416,3.464s-2.111,1.125-2.749,1.125c-0.333,0-0.575-0.054-0.722-0.168
			c-0.148-0.122-0.222-0.306-0.222-0.57c0-0.236,0.101-0.58,0.315-1.011C44.582,60.965,44.916,60.456,45.387,59.875z M54.107,47.853
			c0.288-0.009,0.556-0.088,0.814-0.238c0.26-0.158,0.481-0.37,0.648-0.632c0.166-0.264,0.249-0.555,0.259-0.87
			c-0.01-0.273-0.111-0.492-0.305-0.678c-0.194-0.176-0.462-0.264-0.805-0.271c-0.297,0-0.583,0.079-0.843,0.228
			c-0.259,0.142-0.472,0.336-0.63,0.58c-0.156,0.246-0.239,0.528-0.25,0.826c0.01,0.317,0.12,0.572,0.325,0.765
			C53.534,47.746,53.792,47.844,54.107,47.853z M56.224,60.35c-0.805,0.95-1.425,1.715-1.851,2.295
			c-0.427,0.581-0.648,0.975-0.648,1.186c0.01,0.134,0.083,0.237,0.221,0.309c0.15,0.079,0.334,0.114,0.556,0.114
			c0.575,0,1.046-0.053,1.435-0.167c0.38-0.113,0.723-0.3,1.029-0.545c0.296-0.246,0.611-0.57,0.925-0.977
			c0.314-0.403,0.694-0.888,1.138-1.468c0.436-0.57,0.982-1.247,1.64-2.011c1.619-1.849,3.092-3.366,4.406-4.572
			c1.314-1.194,2.427-2.092,3.334-2.68c0.906-0.581,1.545-0.871,1.925-0.871c0.139,0.009,0.25,0.072,0.324,0.195
			c0.083,0.114,0.12,0.245,0.12,0.386c0,0.236-0.222,0.685-0.666,1.354c-0.444,0.659-1.111,1.546-2,2.654
			c-1.157,1.415-2.064,2.637-2.741,3.673c-0.675,1.039-1.019,1.951-1.036,2.761c0.009,0.693,0.231,1.247,0.657,1.644
			c0.436,0.403,1.028,0.615,1.787,0.624c0.945,0,2.065-0.387,3.36-1.15c1.305-0.757,2.814-1.909,4.527-3.437
			c1.694-1.487,2.963-2.69,3.795-3.622c0.842-0.924,1.259-1.513,1.259-1.757c0-0.213-0.11-0.317-0.333-0.317
			c-0.139,0-0.361,0.158-0.658,0.474c-0.296,0.317-0.712,0.766-1.259,1.354c-0.546,0.59-1.259,1.301-2.139,2.126
			c-1.888,1.742-3.481,3.034-4.776,3.895c-1.297,0.854-2.278,1.273-2.945,1.273c-0.332,0-0.583-0.078-0.75-0.245
			c-0.166-0.158-0.25-0.414-0.25-0.756c0.01-0.414,0.324-1.028,0.936-1.837c0.602-0.816,1.444-1.891,2.508-3.226
			c0.583-0.721,1.101-1.379,1.574-1.995c0.463-0.616,0.833-1.195,1.112-1.758c0.277-0.563,0.416-1.125,0.425-1.679
			c-0.009-0.589-0.176-1.063-0.51-1.415c-0.333-0.352-0.787-0.528-1.379-0.537c-0.741,0.009-1.648,0.353-2.712,1.037
			c-1.074,0.695-2.351,1.697-3.843,3.023c0.223-0.369,0.389-0.711,0.5-1.045c0.112-0.335,0.167-0.669,0.167-1.012
			c0-0.439-0.102-0.826-0.287-1.142c-0.186-0.325-0.436-0.58-0.741-0.756c-0.306-0.177-0.648-0.265-1.028-0.265
			c-0.637,0-1.369,0.272-2.203,0.817c-0.833,0.544-1.769,1.345-2.795,2.399c-0.667,0.687-1.167,1.231-1.5,1.636
			c-0.333,0.403-0.499,0.686-0.499,0.844c0,0.078,0.026,0.141,0.073,0.193c0.037,0.044,0.093,0.07,0.148,0.07
			c0.194-0.009,0.454-0.176,0.787-0.492c0.324-0.309,0.704-0.695,1.12-1.161c0.426-0.465,0.861-0.923,1.333-1.388
			c0.463-0.466,0.926-0.853,1.389-1.169c0.462-0.308,0.898-0.474,1.314-0.483c0.148,0,0.268,0.053,0.379,0.141
			c0.111,0.096,0.167,0.228,0.177,0.387c0,0.264-0.112,0.615-0.343,1.045c-0.223,0.432-0.574,0.932-1.047,1.486L56.224,60.35z
			 M78.67,60.35c-0.806,0.95-1.427,1.715-1.852,2.295c-0.426,0.581-0.649,0.975-0.649,1.186c0.01,0.134,0.083,0.237,0.223,0.309
			c0.148,0.079,0.333,0.114,0.555,0.114c0.575,0,1.046-0.053,1.436-0.167c0.38-0.113,0.722-0.3,1.027-0.545
			c0.296-0.246,0.612-0.57,0.925-0.977c0.316-0.403,0.695-0.888,1.139-1.468c0.436-0.57,0.982-1.247,1.64-2.011
			c1.62-1.849,3.091-3.366,4.406-4.572c1.315-1.194,2.426-2.092,3.333-2.68c0.907-0.581,1.545-0.871,1.925-0.871
			c0.139,0.009,0.25,0.072,0.325,0.195c0.083,0.114,0.12,0.245,0.12,0.386c0,0.236-0.222,0.685-0.667,1.354
			c-0.444,0.659-1.11,1.546-2,2.654c-1.157,1.415-2.064,2.637-2.739,3.673c-0.677,1.039-1.019,1.951-1.038,2.761
			c0.009,0.693,0.231,1.247,0.658,1.644c0.435,0.403,1.027,0.615,1.787,0.624c0.944,0,2.064-0.387,3.36-1.15
			c1.306-0.757,2.814-1.909,4.527-3.437c1.694-1.487,2.963-2.69,3.795-3.622c0.843-0.924,1.259-1.513,1.259-1.757
			c0-0.213-0.111-0.317-0.333-0.317c-0.139,0-0.361,0.158-0.657,0.474c-0.297,0.317-0.714,0.766-1.259,1.354
			c-0.546,0.59-1.259,1.301-2.139,2.126c-1.888,1.742-3.481,3.034-4.777,3.895c-1.296,0.854-2.277,1.273-2.943,1.273
			c-0.334,0-0.585-0.078-0.751-0.245c-0.166-0.158-0.249-0.414-0.249-0.756c0.01-0.414,0.324-1.028,0.935-1.837
			c0.602-0.816,1.444-1.891,2.508-3.226c0.583-0.721,1.102-1.379,1.574-1.995c0.463-0.616,0.833-1.195,1.112-1.758
			c0.277-0.563,0.417-1.125,0.425-1.679c-0.008-0.589-0.176-1.063-0.508-1.415c-0.333-0.352-0.788-0.528-1.38-0.537
			c-0.74,0.009-1.647,0.353-2.712,1.037c-1.074,0.695-2.351,1.697-3.842,3.023c0.223-0.369,0.389-0.711,0.5-1.045
			c0.11-0.335,0.167-0.669,0.167-1.012c0-0.439-0.103-0.826-0.286-1.142c-0.186-0.325-0.437-0.58-0.742-0.756
			c-0.306-0.177-0.648-0.265-1.029-0.265c-0.638,0-1.37,0.272-2.202,0.817c-0.833,0.544-1.769,1.345-2.796,2.399
			c-0.667,0.687-1.167,1.231-1.5,1.636c-0.334,0.403-0.5,0.686-0.5,0.844c0,0.078,0.027,0.141,0.074,0.193
			c0.038,0.044,0.092,0.07,0.148,0.07c0.195-0.009,0.454-0.176,0.788-0.492c0.323-0.309,0.704-0.695,1.12-1.161
			c0.425-0.465,0.861-0.923,1.332-1.388c0.463-0.466,0.927-0.853,1.389-1.169c0.463-0.308,0.898-0.474,1.316-0.483
			c0.148,0,0.268,0.053,0.378,0.141c0.112,0.096,0.167,0.228,0.178,0.387c0,0.264-0.112,0.615-0.344,1.045
			c-0.221,0.432-0.573,0.932-1.045,1.486L78.67,60.35z M102.393,57.819c1.194-1.652,2.314-3.022,3.37-4.104
			c1.045-1.081,1.962-1.891,2.75-2.426c0.778-0.536,1.37-0.8,1.768-0.8c0.287,0.009,0.518,0.088,0.712,0.246
			c0.185,0.158,0.277,0.351,0.287,0.597c0,0.642-0.342,1.354-1.019,2.137c-0.675,0.781-1.676,1.556-3,2.32
			C105.948,56.545,104.318,57.23,102.393,57.819z M102.004,58.928c2.295-0.713,4.212-1.521,5.759-2.417
			c1.536-0.898,2.693-1.803,3.462-2.726c0.777-0.924,1.167-1.775,1.167-2.559c0-0.51-0.167-0.904-0.492-1.194
			c-0.333-0.29-0.814-0.431-1.454-0.439c-0.758,0-1.657,0.184-2.675,0.563c-1.027,0.387-2.12,0.966-3.268,1.757
			c-1.185,0.836-2.184,1.714-3.008,2.638c-0.815,0.923-1.435,1.854-1.852,2.794c-0.426,0.941-0.639,1.856-0.639,2.742
			c0.017,1.302,0.361,2.321,1.046,3.051c0.675,0.729,1.601,1.107,2.785,1.116c1.26,0,2.824-0.502,4.675-1.521
			c1.852-1.019,3.926-2.566,6.212-4.65c1.222-1.142,2.138-2.046,2.75-2.733c0.611-0.686,0.917-1.106,0.917-1.274
			c0-0.104-0.019-0.183-0.047-0.236c-0.037-0.053-0.091-0.079-0.175-0.079c-0.231,0-0.491,0.158-0.787,0.448
			c-0.296,0.297-0.704,0.729-1.203,1.273c-0.5,0.556-1.167,1.214-2.01,1.97c-2.23,2.004-4.185,3.488-5.869,4.456
			c-1.694,0.976-3.064,1.459-4.129,1.451c-0.591-0.01-1.045-0.169-1.379-0.484c-0.333-0.316-0.5-0.746-0.509-1.311
			c0.01-0.526,0.075-1,0.214-1.431C101.633,59.691,101.801,59.296,102.004,58.928z M110.281,47.853c0.379,0,0.897-0.158,1.546-0.457
			c0.639-0.309,1.462-0.756,2.454-1.336c1.693-0.984,2.972-1.943,3.823-2.893c0.861-0.949,1.287-1.845,1.287-2.698
			c-0.01-0.5-0.158-0.896-0.463-1.169c-0.296-0.272-0.694-0.412-1.203-0.412c-0.481,0.008-0.861,0.156-1.157,0.456
			c-0.288,0.3-0.537,0.677-0.741,1.144c-0.204,0.466-0.408,0.966-0.63,1.493c-0.213,0.527-0.481,1.021-0.805,1.495
			c-0.537,0.702-1.074,1.283-1.61,1.723c-0.537,0.446-1.038,0.798-1.481,1.071c-0.454,0.273-0.815,0.493-1.093,0.676
			c-0.277,0.177-0.417,0.361-0.425,0.538c0,0.131,0.045,0.229,0.129,0.281C109.994,47.824,110.114,47.853,110.281,47.853z
			 M127.511,63.462c1.481-0.747,2.731-1.607,3.731-2.585c1.008-0.975,1.768-2.004,2.277-3.094c0.509-1.089,0.769-2.188,0.769-3.287
			c-0.009-0.746-0.11-1.415-0.315-1.995c-0.194-0.579-0.425-1.081-0.685-1.502c-0.26-0.432-0.491-0.783-0.685-1.064
			c-0.205-0.281-0.306-0.502-0.315-0.659c0.009-0.104,0.083-0.237,0.213-0.403c0.139-0.168,0.268-0.378,0.407-0.633
			c0.129-0.264,0.205-0.58,0.214-0.968c-0.009-0.289-0.094-0.526-0.251-0.693c-0.158-0.168-0.351-0.255-0.583-0.255
			c-0.38,0.008-0.639,0.104-0.796,0.297c-0.158,0.194-0.26,0.45-0.325,0.775c-0.064,0.326-0.157,0.686-0.269,1.081
			c-0.11,0.403-0.313,0.808-0.61,1.222c-0.824,1.099-1.601,2.03-2.323,2.776c-0.721,0.748-1.305,1.354-1.759,1.813
			c-0.444,0.465-0.685,0.816-0.694,1.053c0,0.106,0.019,0.185,0.046,0.238c0.037,0.052,0.092,0.079,0.175,0.079
			c0.251,0,0.834-0.482,1.751-1.457c0.915-0.969,2.166-2.42,3.748-4.345c0.25,0.423,0.445,0.907,0.573,1.441
			c0.14,0.537,0.205,1.116,0.205,1.724c0,0.765-0.194,1.643-0.583,2.629c-0.38,0.983-0.944,1.986-1.685,3.022
			c-0.75,1.037-1.658,2.021-2.731,2.944c-0.723,0.634-1.398,1.107-2.028,1.424c-0.628,0.317-1.193,0.474-1.693,0.474
			c-0.371-0.008-0.658-0.113-0.88-0.307c-0.222-0.202-0.333-0.448-0.342-0.747c0.009-0.325,0.139-0.57,0.388-0.746
			c0.25-0.168,0.537-0.309,0.861-0.423c0.325-0.105,0.61-0.219,0.861-0.353c0.25-0.122,0.379-0.306,0.389-0.534
			c-0.01-0.265-0.121-0.484-0.325-0.643c-0.212-0.167-0.472-0.246-0.787-0.255c-0.397,0.009-0.777,0.13-1.139,0.377
			c-0.361,0.248-0.657,0.58-0.888,0.985c-0.232,0.403-0.352,0.845-0.362,1.326c0,0.767,0.334,1.354,0.991,1.759
			c0.648,0.403,1.62,0.616,2.897,0.616c1.833,0,3.703-0.37,5.619-1.1c1.908-0.738,3.851-1.828,5.824-3.278
			c1.277-0.958,2.351-1.872,3.212-2.717c0.87-0.851,1.518-1.564,1.962-2.144c0.435-0.58,0.658-0.949,0.658-1.099
			c0-0.105-0.019-0.176-0.056-0.212c-0.037-0.035-0.11-0.052-0.222-0.052c-0.176,0.009-0.417,0.166-0.713,0.491
			c-0.296,0.317-0.684,0.756-1.185,1.318c-0.5,0.563-1.147,1.205-1.934,1.935c-1.843,1.608-3.657,2.899-5.453,3.868
			C130.88,62.538,129.158,63.172,127.511,63.462z M149.402,48.696c4.517-5.609,8.285-9.791,11.321-12.543
			c3.037-2.759,5.24-4.131,6.619-4.122c0.36,0,0.639,0.079,0.824,0.246c0.195,0.177,0.286,0.438,0.286,0.807
			c0,0.484-0.24,1.152-0.721,1.997c-0.481,0.844-1.223,1.812-2.205,2.9c-0.99,1.09-2.24,2.242-3.758,3.463
			c-1.509,1.223-3.295,2.452-5.351,3.692C154.363,46.366,152.021,47.562,149.402,48.696z M136.736,60.35
			c-0.805,0.95-1.416,1.706-1.824,2.277c-0.417,0.571-0.62,0.967-0.62,1.203c0.009,0.106,0.083,0.202,0.222,0.291
			c0.148,0.079,0.334,0.123,0.556,0.132c0.629,0.009,1.149-0.061,1.564-0.211c0.417-0.141,0.825-0.396,1.205-0.772
			c0.389-0.371,0.842-0.896,1.36-1.575c0.529-0.676,1.203-1.545,2.037-2.608l7.277-9.072c2.795-1.178,5.313-2.409,7.544-3.7
			c2.222-1.283,4.175-2.574,5.833-3.866c1.666-1.292,3.046-2.531,4.156-3.736c1.102-1.194,1.925-2.302,2.472-3.306
			c0.546-1.011,0.824-1.871,0.824-2.584c0-0.535-0.148-0.948-0.435-1.238c-0.288-0.299-0.695-0.448-1.232-0.448
			c-1.294,0-3.128,0.826-5.479,2.479c-2.361,1.66-5.204,4.166-8.545,7.521c-3.352,3.359-7.146,7.578-11.415,12.676L136.736,60.35z
			 M148.957,56.078v0.106c-0.019,0.448-0.167,0.878-0.464,1.318c-0.287,0.431-0.62,0.87-1.008,1.328
			c-0.38,0.465-0.723,0.947-1.01,1.477c-0.296,0.526-0.444,1.098-0.462,1.73c0.01,0.721,0.213,1.274,0.63,1.67
			c0.417,0.396,1,0.588,1.759,0.598c0.99-0.01,2.082-0.352,3.277-1.046c1.193-0.686,2.564-1.688,4.11-3.016
			c1.26-1.08,2.315-2.029,3.166-2.864c0.843-0.835,1.481-1.521,1.917-2.057c0.425-0.526,0.639-0.87,0.639-1.036
			c0-0.213-0.111-0.317-0.334-0.317c-0.12,0-0.351,0.185-0.694,0.544c-0.343,0.361-0.843,0.88-1.5,1.564
			c-0.658,0.687-1.519,1.513-2.583,2.479c-1.786,1.6-3.296,2.788-4.536,3.552c-1.232,0.765-2.147,1.151-2.74,1.143
			c-0.205,0-0.371-0.079-0.509-0.219c-0.139-0.142-0.205-0.336-0.212-0.572c0.017-0.343,0.156-0.721,0.434-1.126
			c0.278-0.403,0.593-0.834,0.954-1.292c0.362-0.447,0.676-0.931,0.954-1.423c0.278-0.5,0.417-1.011,0.435-1.539
			c0-0.412-0.092-0.807-0.277-1.177c-0.185-0.369-0.445-0.756-0.779-1.143c1.566-1.45,2.908-2.522,4.009-3.226
			c1.102-0.704,1.898-1.046,2.38-1.046c0.111,0,0.203,0.053,0.278,0.14c0.074,0.098,0.111,0.229,0.111,0.388v0.368
			c0.009,0.291,0.092,0.527,0.268,0.694c0.167,0.168,0.398,0.256,0.676,0.256c0.389,0,0.685-0.114,0.878-0.353
			c0.195-0.228,0.289-0.57,0.289-1.02c-0.01-0.483-0.186-0.86-0.537-1.15c-0.343-0.283-0.815-0.424-1.408-0.432
			c-0.823,0.008-1.87,0.432-3.147,1.268c-1.269,0.833-2.833,2.047-4.685,3.639c-0.5-0.107-1-0.159-1.499-0.159
			c-0.731,0.008-1.361,0.105-1.917,0.309c-0.546,0.192-0.972,0.455-1.277,0.789c-0.307,0.335-0.463,0.704-0.472,1.117
			c0.009,0.404,0.148,0.729,0.435,0.983c0.278,0.247,0.676,0.379,1.176,0.388c0.528,0,1.065-0.141,1.62-0.422
			C147.846,57.011,148.402,56.605,148.957,56.078z M148.567,55.287c-0.537,0.555-1.037,0.968-1.508,1.23
			c-0.472,0.273-0.87,0.405-1.214,0.405c-0.276,0-0.499-0.062-0.656-0.176c-0.149-0.114-0.232-0.273-0.232-0.457
			c0.01-0.353,0.214-0.641,0.612-0.861c0.398-0.229,0.935-0.344,1.611-0.352c0.222,0,0.444,0.019,0.675,0.043
			C148.078,55.156,148.318,55.209,148.567,55.287z M168.681,48.433c2.861-3.647,5.416-6.654,7.675-9.019
			c2.25-2.363,4.156-4.114,5.703-5.256c1.555-1.143,2.702-1.714,3.452-1.704c0.362-0.01,0.639,0.068,0.825,0.219
			c0.195,0.157,0.287,0.411,0.287,0.78c0,0.425-0.223,1.022-0.667,1.803c-0.453,0.784-1.138,1.697-2.064,2.735
			c-0.925,1.036-2.102,2.145-3.518,3.32c-1.426,1.179-3.101,2.383-5.045,3.596C173.383,46.122,171.171,47.299,168.681,48.433z
			 M167.959,49.698c3.276-1.451,6.137-2.953,8.583-4.518c2.452-1.557,4.49-3.095,6.109-4.598c1.621-1.503,2.843-2.893,3.647-4.174
			c0.806-1.284,1.213-2.375,1.213-3.271c0-0.51-0.138-0.896-0.398-1.17c-0.268-0.272-0.658-0.412-1.158-0.412
			c-0.823,0-2.036,0.457-3.619,1.371c-1.593,0.913-3.481,2.312-5.674,4.185c-2.194,1.871-4.621,4.236-7.259,7.102
			c-3.953,4.289-6.925,7.901-8.925,10.837c-2.008,2.937-3.009,5.229-3.018,6.882c0,0.8,0.251,1.407,0.731,1.827
			c0.481,0.433,1.186,0.642,2.102,0.65c0.805,0,1.649-0.184,2.51-0.553c0.869-0.361,1.795-0.896,2.777-1.6
			c0.981-0.712,2.054-1.573,3.213-2.592c1.666-1.487,2.916-2.69,3.749-3.622c0.833-0.924,1.25-1.513,1.25-1.757
			c0-0.213-0.111-0.317-0.333-0.317c-0.12,0-0.305,0.131-0.556,0.396c-0.249,0.254-0.601,0.632-1.055,1.125
			c-0.453,0.5-1.045,1.099-1.777,1.802c-2.167,2.057-4.035,3.585-5.6,4.605c-1.556,1.011-2.786,1.511-3.675,1.511
			c-0.416,0-0.731-0.078-0.954-0.245c-0.212-0.175-0.324-0.439-0.324-0.81c-0.009-0.614,0.667-2.004,2.037-4.146
			C162.923,56.053,165.052,53.213,167.959,49.698z"/>
		<path display="inline" fill-rule="evenodd" clip-rule="evenodd" fill="#C6C184" d="M174.074,57.819
			c1.194-1.652,2.314-3.022,3.369-4.104c1.047-1.081,1.963-1.891,2.75-2.426c0.777-0.536,1.371-0.8,1.768-0.8
			c0.287,0.009,0.519,0.088,0.713,0.246c0.185,0.158,0.277,0.351,0.288,0.597c0,0.642-0.343,1.354-1.019,2.137
			c-0.676,0.781-1.677,1.556-3,2.32C177.628,56.545,176.001,57.23,174.074,57.819z M173.685,58.928
			c2.296-0.713,4.213-1.521,5.758-2.417c1.538-0.898,2.695-1.803,3.463-2.726c0.778-0.924,1.166-1.775,1.166-2.559
			c0-0.51-0.166-0.904-0.49-1.194c-0.333-0.29-0.814-0.431-1.454-0.439c-0.759,0-1.656,0.184-2.675,0.563
			c-1.027,0.387-2.12,0.966-3.269,1.757C175,52.748,174,53.626,173.175,54.55c-0.814,0.923-1.434,1.854-1.851,2.794
			c-0.426,0.941-0.638,1.856-0.638,2.742c0.018,1.302,0.361,2.321,1.045,3.051c0.677,0.729,1.602,1.107,2.787,1.116
			c1.26,0,2.825-0.502,4.676-1.521c1.851-1.019,3.925-2.566,6.211-4.65c1.223-1.142,2.139-2.046,2.749-2.733
			c0.612-0.686,0.919-1.106,0.919-1.274c0-0.104-0.02-0.183-0.047-0.236c-0.037-0.053-0.093-0.079-0.176-0.079
			c-0.231,0-0.491,0.158-0.787,0.448c-0.295,0.297-0.703,0.729-1.205,1.273c-0.498,0.556-1.164,1.214-2.009,1.97
			c-2.229,2.004-4.184,3.488-5.868,4.456c-1.695,0.976-3.064,1.459-4.129,1.451c-0.592-0.01-1.047-0.169-1.38-0.484
			c-0.333-0.316-0.499-0.746-0.509-1.311c0.01-0.526,0.074-1,0.212-1.431C173.315,59.691,173.482,59.296,173.685,58.928z
			 M176.857,72.743l8.443-10.39c1.545-1.897,3.055-3.559,4.535-4.982c1.491-1.424,2.862-2.61,4.121-3.56
			c1.25-0.95,2.314-1.661,3.175-2.136c0.851-0.475,1.436-0.713,1.722-0.713c0.194,0,0.36,0.062,0.48,0.168
			c0.121,0.114,0.186,0.246,0.186,0.413c0,0.211-0.222,0.667-0.675,1.354c-0.444,0.694-1.131,1.59-2.046,2.708
			c-1.176,1.414-2.102,2.636-2.759,3.663c-0.667,1.029-1.009,1.935-1.019,2.717c0.01,0.693,0.232,1.247,0.658,1.644
			c0.435,0.403,1.028,0.615,1.787,0.624c0.917,0,2.026-0.387,3.342-1.15c1.305-0.757,2.824-1.909,4.545-3.437
			c1.693-1.504,2.945-2.717,3.768-3.622c0.824-0.906,1.231-1.494,1.231-1.757c0-0.107-0.019-0.187-0.056-0.239
			c-0.037-0.052-0.111-0.078-0.222-0.078c-0.121,0-0.333,0.158-0.629,0.474c-0.296,0.317-0.722,0.766-1.277,1.354
			c-0.547,0.59-1.268,1.301-2.149,2.126c-1.897,1.742-3.49,3.034-4.795,3.895c-1.306,0.854-2.277,1.273-2.925,1.273
			c-0.333,0-0.574-0.078-0.723-0.245c-0.148-0.158-0.221-0.414-0.221-0.756c0.008-0.387,0.315-0.984,0.906-1.802
			c0.603-0.809,1.445-1.899,2.538-3.261c0.639-0.783,1.185-1.504,1.657-2.137c0.472-0.642,0.841-1.238,1.111-1.793
			c0.26-0.554,0.397-1.089,0.397-1.608c-0.009-0.562-0.186-1.011-0.538-1.335c-0.341-0.334-0.813-0.502-1.406-0.511
			c-0.955,0.009-2.177,0.502-3.667,1.469c-1.481,0.966-3.314,2.348-5.499,4.122l9.277-11.129c0.805-0.975,1.425-1.757,1.85-2.338
			c0.426-0.587,0.648-0.982,0.648-1.193c-0.009-0.106-0.084-0.203-0.222-0.291c-0.148-0.078-0.333-0.123-0.556-0.132
			c-0.546,0-1,0.044-1.352,0.132c-0.342,0.088-0.648,0.228-0.89,0.413c-0.25,0.175-0.489,0.412-0.721,0.702
			c-0.231,0.282-0.5,0.625-0.814,1.021l-23.274,28.636c-0.759,0.915-1.361,1.652-1.815,2.225c-0.443,0.563-0.674,1.002-0.684,1.31
			c0.01,0.114,0.083,0.21,0.223,0.29c0.146,0.078,0.332,0.121,0.555,0.132c0.545,0,1-0.044,1.351-0.132
			c0.352-0.089,0.648-0.229,0.89-0.405c0.25-0.184,0.489-0.421,0.721-0.711C176.273,73.482,176.542,73.14,176.857,72.743z
			 M215.911,65.044c1.962-0.73,3.75-1.538,5.332-2.435c1.592-0.896,2.991-1.802,4.194-2.717c1.204-0.922,2.212-1.783,3.027-2.583
			c0.804-0.799,1.417-1.468,1.824-2.003c0.417-0.546,0.621-0.881,0.621-1.02c0-0.213-0.111-0.317-0.333-0.317
			c-0.149,0.009-0.426,0.237-0.824,0.676c-0.398,0.439-0.945,1.021-1.648,1.751c-0.695,0.719-1.564,1.521-2.61,2.39
			c-1.047,0.868-2.296,1.749-3.74,2.619c-1.445,0.878-3.11,1.687-5.009,2.425l10.054-12.498c0.194-0.246,0.333-0.484,0.425-0.703
			c0.085-0.218,0.13-0.369,0.13-0.457c0-0.13-0.093-0.245-0.288-0.333c-0.184-0.088-0.462-0.141-0.822-0.141
			c-0.52,0-0.927,0.053-1.242,0.184c-0.316,0.123-0.611,0.343-0.889,0.642c-0.279,0.308-0.62,0.729-1.028,1.267
			c-0.407,0.535-0.973,1.204-1.675,2.021c-2.723,3.085-4.972,5.396-6.74,6.926c-1.777,1.538-3.064,2.303-3.871,2.303
			c-0.305,0-0.527-0.069-0.674-0.202c-0.139-0.142-0.213-0.352-0.213-0.643c0-0.368,0.343-1.002,1.009-1.906
			c0.676-0.896,1.657-2.074,2.935-3.524c0.583-0.642,1.092-1.24,1.527-1.794c0.444-0.554,0.787-1.09,1.035-1.615
			c0.251-0.529,0.372-1.083,0.381-1.654c0-0.658-0.166-1.15-0.491-1.467c-0.333-0.325-0.815-0.483-1.454-0.483
			c-0.739,0-1.564,0.263-2.453,0.782c-0.888,0.527-1.889,1.301-2.991,2.328c-0.638,0.58-1.119,1.064-1.452,1.46
			c-0.325,0.387-0.491,0.676-0.491,0.861c0,0.078,0.028,0.141,0.074,0.193c0.037,0.044,0.091,0.07,0.147,0.07
			c0.176-0.009,0.417-0.167,0.75-0.466c0.324-0.299,0.702-0.669,1.137-1.116c0.436-0.44,0.899-0.88,1.39-1.327
			c0.49-0.439,0.981-0.809,1.472-1.108c0.5-0.298,0.972-0.457,1.417-0.466c0.194,0,0.342,0.054,0.455,0.141
			c0.101,0.098,0.156,0.229,0.156,0.387c0,0.238-0.148,0.554-0.435,0.94c-0.288,0.387-0.695,0.87-1.224,1.461
			c-0.517,0.578-1.138,1.291-1.841,2.134c-1.065,1.23-1.889,2.322-2.481,3.271c-0.593,0.948-0.898,1.828-0.907,2.637
			c0,0.694,0.194,1.249,0.565,1.645c0.369,0.403,0.907,0.615,1.601,0.623c0.88-0.008,1.833-0.315,2.85-0.931
			c1.029-0.608,2.187-1.46,3.482-2.55l-3.389,4.43c-2.296,0.79-4.359,1.644-6.173,2.576c-1.825,0.921-3.408,1.862-4.76,2.829
			c-1.341,0.967-2.462,1.906-3.36,2.813c-0.888,0.914-1.546,1.738-1.99,2.495c-0.435,0.757-0.657,1.389-0.657,1.89
			c0.007,0.746,0.241,1.318,0.685,1.714c0.453,0.404,1.055,0.598,1.815,0.606c1.119,0,2.277-0.334,3.489-1.002
			c1.204-0.658,2.509-1.634,3.906-2.909c1.399-1.282,2.936-2.856,4.63-4.72C211.959,69.578,213.837,67.443,215.911,65.044z
			 M212.079,66.204c-1.714,2.048-3.24,3.885-4.583,5.502c-1.333,1.616-2.537,2.998-3.602,4.131
			c-1.065,1.135-2.046,2.004-2.935,2.593c-0.889,0.599-1.731,0.906-2.546,0.906c-0.583,0-1.018-0.133-1.295-0.387
			c-0.287-0.264-0.426-0.643-0.426-1.143c0-0.588,0.315-1.337,0.954-2.242c0.629-0.904,1.592-1.891,2.86-2.962
			c1.278-1.081,2.879-2.161,4.805-3.27C207.245,68.233,209.496,67.189,212.079,66.204z M258.248,63.04
			c1.407,0.255,2.778,0.492,4.101,0.711c1.333,0.222,2.631,0.405,3.907,0.545c1.278,0.142,2.527,0.214,3.768,0.221
			c3.408,0.009,6.526-0.439,9.35-1.335c2.823-0.898,5.406-2.287,7.757-4.15c0.982-0.799,1.805-1.528,2.482-2.188
			c0.666-0.667,1.164-1.222,1.508-1.668c0.344-0.45,0.509-0.738,0.509-0.888c0-0.213-0.108-0.317-0.333-0.317
			c-0.121,0-0.305,0.141-0.557,0.413c-0.248,0.272-0.6,0.65-1.055,1.142c-0.443,0.483-1.044,1.064-1.777,1.713
			c-2.266,2.022-4.721,3.525-7.358,4.502c-2.64,0.976-5.537,1.468-8.695,1.459c-3.555,0-7.22-0.423-10.998-1.266
			c2.306-1.151,4.443-2.566,6.435-4.228c1.989-1.661,3.84-3.613,5.563-5.844c3.352-0.784,6.499-1.908,9.424-3.351
			c2.925-1.45,5.693-3.252,8.295-5.404c0.5,0.237,0.964,0.412,1.408,0.518c0.434,0.115,0.879,0.166,1.313,0.166
			c1.362-0.017,2.676-0.297,3.935-0.842c1.26-0.555,2.389-1.293,3.389-2.217c1.01-0.921,1.807-1.95,2.389-3.083
			c0.584-1.125,0.889-2.286,0.9-3.455c-0.012-1.301-0.279-2.408-0.808-3.322c-0.526-0.905-1.269-1.6-2.221-2.074
			c-0.954-0.476-2.075-0.721-3.36-0.721c-2.073,0-4.194,0.43-6.361,1.282c-2.166,0.854-4.451,2.11-6.858,3.78
			c-0.761-0.721-1.787-1.301-3.084-1.731c-1.295-0.431-2.823-0.66-4.583-0.693c-0.174-1.048-0.609-1.943-1.313-2.709
			c-0.704-0.765-1.639-1.353-2.795-1.774c-1.158-0.412-2.51-0.625-4.055-0.633c-1.511,0-3.085,0.229-4.723,0.667
			c-1.629,0.439-3.25,1.091-4.85,1.934c-1.603,0.844-3.121,1.881-4.538,3.095c-1.887,1.643-3.304,3.384-4.248,5.221
			c-0.944,1.838-1.416,3.735-1.416,5.694c0.009,2.261,0.554,4.177,1.638,5.75c1.093,1.571,2.694,2.777,4.813,3.603
			c2.12,0.826,4.732,1.239,7.823,1.249c0.916,0,1.88-0.044,2.88-0.124c1.008-0.078,2.064-0.192,3.174-0.351
			c-1.518,2.215-3.073,4.087-4.673,5.616c-1.604,1.529-3.306,2.716-5.103,3.561c-3.434-0.774-6.377-1.391-8.813-1.838
			c-2.443-0.457-4.406-0.686-5.905-0.694c-1.5,0.009-2.639,0.229-3.397,0.641c-0.769,0.422-1.159,0.986-1.159,1.68
			c0,1.028,0.724,1.792,2.159,2.303c1.425,0.501,3.563,0.755,6.397,0.755c1.667,0,3.294-0.104,4.906-0.325
			C255.036,63.822,256.646,63.489,258.248,63.04z M256.47,62.564c-1.333,0.344-2.639,0.607-3.934,0.783
			c-1.296,0.185-2.594,0.271-3.898,0.271c-2.499-0.008-4.396-0.201-5.682-0.597c-1.279-0.396-1.928-0.95-1.928-1.669
			c0-0.432,0.278-0.766,0.825-1.004c0.554-0.245,1.37-0.368,2.452-0.368c0.927,0,1.983,0.113,3.177,0.343
			c1.193,0.221,2.544,0.527,4.036,0.914C253.007,61.626,254.655,62.064,256.47,62.564z M269.745,51.438
			c-1.027,0.21-2.074,0.359-3.147,0.447s-2.185,0.133-3.351,0.133c-4.258-0.009-7.461-0.756-9.627-2.234
			c-2.166-1.484-3.25-3.638-3.259-6.468c0-1.88,0.583-3.78,1.74-5.704c1.166-1.926,2.898-3.841,5.204-5.739
			c1.473-1.196,2.906-2.189,4.323-2.989c1.408-0.799,2.767-1.396,4.055-1.792c1.296-0.404,2.509-0.598,3.62-0.598
			c1.213,0.007,2.286,0.193,3.223,0.554c0.934,0.369,1.684,0.869,2.266,1.511c0.576,0.634,0.927,1.372,1.065,2.208
			c-2.111,0.174-4.064,0.526-5.85,1.054c-1.795,0.536-3.399,1.186-4.805,1.951c-1.416,0.773-2.62,1.618-3.61,2.522
			c-0.991,0.905-1.75,1.829-2.278,2.76c-0.519,0.933-0.779,1.828-0.787,2.681c0.008,1.169,0.397,2.083,1.157,2.741
			c0.759,0.661,1.833,0.995,3.23,1.003c0.743,0,1.575-0.149,2.482-0.431c0.907-0.289,1.851-0.712,2.843-1.274
			c0.99-0.553,1.979-1.247,2.961-2.073c0.99-0.828,1.925-1.784,2.824-2.865c0.916-1.135,1.61-2.321,2.072-3.544
			c0.472-1.221,0.704-2.47,0.704-3.734c1.529,0.026,2.852,0.219,3.98,0.598c1.129,0.379,2.083,0.93,2.853,1.669
			c-1.899,1.829-3.629,3.72-5.213,5.67c-1.583,1.943-3.083,3.92-4.49,5.924C272.513,47.421,271.125,49.425,269.745,51.438z
			 M275.911,31.61c-0.028,1.098-0.221,2.161-0.592,3.183c-0.361,1.02-0.907,2.012-1.63,2.987c-0.814,1.08-1.693,2.048-2.638,2.891
			c-0.935,0.854-1.899,1.564-2.871,2.154c-0.963,0.588-1.897,1.037-2.796,1.343c-0.888,0.308-1.703,0.467-2.416,0.467
			c-1.119-0.009-1.98-0.271-2.582-0.789c-0.604-0.52-0.909-1.258-0.917-2.217c0.008-0.729,0.258-1.521,0.769-2.373
			c0.508-0.844,1.249-1.695,2.203-2.548c0.962-0.854,2.11-1.645,3.462-2.373c1.342-0.74,2.86-1.346,4.545-1.829
			C272.135,32.022,273.949,31.724,275.911,31.61z M290.631,41.945c-0.332-0.369-0.584-0.764-0.751-1.195
			c-0.166-0.421-0.25-0.888-0.25-1.388c0.021-0.782,0.195-1.494,0.549-2.137c0.341-0.65,0.775-1.159,1.286-1.547
			c0.498-0.388,1.008-0.58,1.5-0.589c0.48,0,0.86,0.14,1.128,0.413c0.278,0.271,0.427,0.659,0.427,1.169
			c0.008,0.589-0.307,1.345-0.945,2.261C292.945,39.846,291.963,40.855,290.631,41.945z M273.522,50.806
			c0.935-1.259,1.843-2.55,2.712-3.868c0.871-1.317,1.749-2.646,2.64-3.98c0.887-1.328,1.823-2.628,2.824-3.913
			c0.991-1.282,2.083-2.513,3.266-3.689c0.195,0.358,0.354,0.728,0.454,1.089c0.104,0.352,0.158,0.729,0.158,1.124
			c-0.009,0.801-0.166,1.504-0.463,2.12c-0.307,0.614-0.676,1.15-1.12,1.617c-0.445,0.457-0.889,0.853-1.333,1.186
			c-0.444,0.335-0.816,0.624-1.111,0.854c-0.305,0.238-0.464,0.438-0.472,0.606c0,0.027,0.018,0.052,0.037,0.068
			c0.018,0.027,0.046,0.037,0.074,0.037c0.287,0,0.648-0.115,1.092-0.335c0.446-0.228,0.918-0.537,1.408-0.939
			c0.491-0.406,0.954-0.88,1.388-1.426c0.446-0.552,0.797-1.149,1.075-1.81c0.278-0.658,0.416-1.354,0.426-2.083
			c-0.01-0.58-0.093-1.099-0.259-1.572c-0.158-0.468-0.37-0.916-0.63-1.327c2-1.873,4.009-3.279,6.025-4.229
			c2.021-0.939,4.027-1.414,6.027-1.414c0.973,0,1.834,0.185,2.585,0.554c0.749,0.368,1.331,0.888,1.767,1.564
			c0.425,0.677,0.638,1.478,0.646,2.415c-0.009,0.934-0.192,1.857-0.572,2.77c-0.381,0.915-0.881,1.769-1.528,2.576
			c-0.638,0.81-1.361,1.521-2.167,2.146c-0.805,0.624-1.646,1.106-2.508,1.459c-0.87,0.361-1.721,0.535-2.555,0.545
			c-0.333,0-0.666-0.054-1-0.141c-0.333-0.088-0.666-0.203-1-0.334c1.342-1.206,2.361-2.304,3.056-3.287
			c0.704-0.994,1.054-1.916,1.054-2.777c-0.009-0.597-0.222-1.082-0.638-1.469c-0.416-0.377-0.963-0.58-1.638-0.589
			c-0.77,0.009-1.5,0.254-2.195,0.729c-0.685,0.475-1.25,1.1-1.685,1.881c-0.435,0.773-0.655,1.626-0.675,2.557
			c0,0.607,0.111,1.152,0.322,1.646c0.224,0.491,0.539,0.94,0.955,1.362c-2.427,2.065-5.035,3.787-7.824,5.186
			C279.354,49.109,276.485,50.138,273.522,50.806z M291.858,57.819c1.194-1.652,2.313-3.022,3.368-4.104
			c1.049-1.081,1.965-1.891,2.752-2.426c0.776-0.536,1.369-0.8,1.768-0.8c0.284,0.009,0.518,0.088,0.713,0.246
			c0.184,0.158,0.277,0.351,0.285,0.597c0,0.642-0.342,1.354-1.018,2.137c-0.676,0.781-1.674,1.556-3,2.32
			C295.413,56.545,293.783,57.23,291.858,57.819z M291.47,58.928c2.297-0.713,4.212-1.521,5.759-2.417
			c1.537-0.898,2.692-1.803,3.461-2.726c0.779-0.924,1.166-1.775,1.166-2.559c0-0.51-0.167-0.904-0.488-1.194
			c-0.334-0.29-0.816-0.431-1.455-0.439c-0.758,0-1.656,0.184-2.674,0.563c-1.029,0.387-2.121,0.966-3.27,1.757
			c-1.185,0.836-2.185,1.714-3.008,2.638c-0.816,0.923-1.438,1.854-1.853,2.794c-0.425,0.941-0.638,1.856-0.638,2.742
			c0.018,1.302,0.359,2.321,1.046,3.051c0.675,0.729,1.602,1.107,2.786,1.116c1.258,0,2.823-0.502,4.676-1.521
			c1.851-1.019,3.922-2.566,6.209-4.65c1.225-1.142,2.142-2.046,2.75-2.733c0.613-0.686,0.917-1.106,0.917-1.274
			c0-0.104-0.019-0.183-0.046-0.236c-0.037-0.053-0.092-0.079-0.175-0.079c-0.232,0-0.492,0.158-0.787,0.448
			c-0.297,0.297-0.705,0.729-1.205,1.273c-0.497,0.556-1.165,1.214-2.008,1.97c-2.231,2.004-4.184,3.488-5.868,4.456
			c-1.694,0.976-3.065,1.459-4.129,1.451c-0.595-0.01-1.048-0.169-1.382-0.484c-0.333-0.316-0.497-0.746-0.509-1.311
			c0.012-0.526,0.075-1,0.215-1.431C291.098,59.691,291.266,59.296,291.47,58.928z M316.58,52.861
			c0.252-0.008,0.491-0.088,0.741-0.237c0.241-0.157,0.445-0.367,0.612-0.633c0.167-0.263,0.25-0.553,0.259-0.87
			c0-0.605-0.222-1.054-0.667-1.354c-0.443-0.288-1.112-0.44-2-0.44c-0.768,0-1.592,0.133-2.479,0.405
			c-0.891,0.272-1.815,0.687-2.762,1.23c-0.942,0.546-1.876,1.23-2.813,2.058c-1.278,1.134-2.231,2.303-2.87,3.507
			s-0.963,2.426-0.963,3.665c0.01,0.817,0.168,1.529,0.474,2.145c0.313,0.615,0.75,1.099,1.313,1.441
			c0.564,0.343,1.221,0.518,1.991,0.527c1.092,0,2.379-0.413,3.868-1.249c1.481-0.834,3.119-2.099,4.907-3.814
			c1.442-1.406,2.528-2.522,3.25-3.365c0.721-0.844,1.083-1.373,1.083-1.59c0-0.213-0.111-0.317-0.333-0.317
			c-0.138,0-0.345,0.141-0.603,0.413c-0.258,0.28-0.61,0.686-1.073,1.229c-0.464,0.537-1.074,1.205-1.824,1.996
			c-1.87,1.898-3.546,3.313-5.026,4.246c-1.482,0.93-2.712,1.396-3.694,1.396c-0.695,0-1.222-0.185-1.573-0.555
			c-0.36-0.368-0.537-0.922-0.537-1.66c0-0.826,0.352-1.828,1.047-2.998c0.703-1.177,1.759-2.478,3.174-3.91
			c1.129-1.168,2.102-2.058,2.915-2.663c0.824-0.617,1.575-0.923,2.251-0.923c0.223,0,0.379,0.025,0.473,0.097
			c0.093,0.07,0.139,0.192,0.139,0.378c-0.01,0.104-0.064,0.236-0.167,0.387c-0.093,0.157-0.147,0.325-0.167,0.509
			c0.009,0.271,0.121,0.493,0.324,0.668C316.055,52.766,316.293,52.854,316.58,52.861z M315.03,60.35
			c-0.804,0.95-1.417,1.706-1.821,2.277c-0.418,0.571-0.621,0.967-0.621,1.203c0.008,0.106,0.083,0.202,0.221,0.291
			c0.148,0.079,0.334,0.123,0.559,0.132c0.554,0,1.027-0.053,1.404-0.167c0.379-0.105,0.713-0.281,1.009-0.528
			c0.308-0.245,0.611-0.569,0.937-0.964c0.313-0.406,0.703-0.89,1.146-1.47c0.445-0.579,1-1.258,1.667-2.038
			c1.565-1.794,2.999-3.288,4.315-4.484c1.313-1.195,2.46-2.091,3.442-2.689c0.991-0.597,1.768-0.896,2.353-0.896
			c0.201,0,0.379,0.061,0.538,0.166c0.146,0.114,0.23,0.246,0.238,0.414c0,0.265-0.231,0.711-0.675,1.354
			c-0.454,0.633-1.092,1.467-1.937,2.496c-1.23,1.467-2.185,2.724-2.859,3.788c-0.677,1.055-1.018,1.969-1.025,2.751
			c0.008,0.693,0.237,1.247,0.683,1.644c0.452,0.403,1.056,0.615,1.814,0.624c0.916,0,2.018-0.387,3.315-1.15
			c1.294-0.757,2.796-1.909,4.517-3.437c1.695-1.487,2.963-2.69,3.796-3.622c0.842-0.924,1.259-1.513,1.259-1.757
			c0-0.213-0.111-0.317-0.334-0.317c-0.12,0-0.333,0.158-0.629,0.456c-0.296,0.308-0.723,0.749-1.278,1.336
			c-0.544,0.581-1.268,1.283-2.147,2.111c-1.926,1.764-3.536,3.075-4.832,3.937c-1.296,0.862-2.239,1.282-2.833,1.282
			c-0.333,0-0.584-0.078-0.75-0.245c-0.167-0.158-0.25-0.414-0.25-0.756c0.011-0.387,0.316-0.984,0.907-1.802
			c0.601-0.809,1.445-1.899,2.537-3.261c0.619-0.773,1.167-1.468,1.639-2.102c0.473-0.632,0.842-1.222,1.109-1.774
			c0.277-0.555,0.41-1.091,0.419-1.608c-0.009-0.509-0.187-0.915-0.549-1.222c-0.359-0.299-0.859-0.458-1.508-0.467
			c-0.889,0-1.897,0.265-3.018,0.8c-1.121,0.527-2.342,1.336-3.646,2.419l2.665-3.061c2.797-1.178,5.314-2.409,7.547-3.7
			c2.221-1.283,4.174-2.565,5.83-3.866c1.667-1.292,3.046-2.531,4.155-3.736c1.104-1.194,1.928-2.302,2.474-3.306
			c0.546-1.011,0.824-1.871,0.824-2.584c0-0.535-0.148-0.948-0.436-1.238c-0.287-0.299-0.693-0.448-1.23-0.448
			c-1.297,0-3.129,0.826-5.482,2.479c-2.358,1.66-5.201,4.166-8.553,7.521c-3.341,3.359-7.139,7.578-11.405,12.676L315.03,60.35z
			 M327.696,48.696c4.517-5.609,8.286-9.791,11.32-12.543c3.036-2.759,5.242-4.131,6.62-4.122c0.36,0,0.639,0.079,0.824,0.246
			c0.194,0.177,0.286,0.438,0.286,0.807c0,0.484-0.239,1.152-0.722,1.997c-0.479,0.844-1.221,1.812-2.203,2.9
			c-0.99,1.09-2.24,2.242-3.759,3.463c-1.509,1.223-3.296,2.452-5.351,3.692C332.658,46.366,330.314,47.562,327.696,48.696z
			 M348.254,57.503c0.276,0.236,0.571,0.414,0.888,0.518c0.315,0.114,0.667,0.168,1.055,0.168c0.677-0.019,1.354-0.177,2.019-0.493
			c0.665-0.315,1.286-0.694,1.842-1.142c0.557-0.45,1.011-0.879,1.344-1.301s0.508-0.739,0.518-0.966c0-0.08-0.02-0.133-0.046-0.169
			c-0.027-0.026-0.065-0.044-0.121-0.044c-0.167,0.011-0.371,0.126-0.61,0.343c-0.24,0.212-0.527,0.484-0.844,0.809
			c-0.322,0.326-0.684,0.642-1.074,0.968c-0.396,0.324-0.831,0.598-1.313,0.808c-0.472,0.221-0.989,0.335-1.546,0.343
			c-0.398-0.008-0.713-0.088-0.955-0.229c-0.248-0.148-0.369-0.316-0.379-0.51c0.01-0.078,0.112-0.263,0.297-0.527
			c0.187-0.271,0.398-0.614,0.649-1.027c0.25-0.413,0.462-0.871,0.646-1.38c0.185-0.511,0.286-1.047,0.298-1.601
			c-0.012-0.773-0.252-1.389-0.731-1.836c-0.483-0.458-1.149-0.688-1.991-0.694c-0.713,0-1.492,0.122-2.352,0.369
			c-0.859,0.254-1.758,0.633-2.703,1.134c-0.936,0.51-1.88,1.15-2.834,1.924c-1.074,0.889-1.971,1.785-2.703,2.708
			c-0.722,0.924-1.268,1.828-1.63,2.725c-0.37,0.888-0.554,1.732-0.554,2.531c0.008,1.038,0.287,1.845,0.824,2.435
			c0.527,0.58,1.276,0.879,2.229,0.888c1.362,0,2.86-0.563,4.491-1.696C344.604,61.432,346.365,59.745,348.254,57.503z
			 M348.642,50.542c0.443,0,0.787,0.131,1.028,0.379c0.239,0.254,0.36,0.623,0.36,1.098c0,0.412-0.149,0.958-0.454,1.635
			c-0.305,0.686-0.768,1.467-1.389,2.354c-0.62,0.889-1.416,1.838-2.379,2.865c-0.954,1.002-1.862,1.828-2.723,2.487
			c-0.86,0.652-1.648,1.144-2.35,1.46c-0.703,0.325-1.289,0.483-1.761,0.483c-0.555,0-0.981-0.132-1.276-0.387
			c-0.297-0.265-0.444-0.642-0.444-1.143c0-0.694,0.416-1.643,1.259-2.857c0.852-1.212,2.129-2.644,3.852-4.315
			c1.36-1.345,2.556-2.354,3.602-3.041C347.002,50.885,347.892,50.542,348.642,50.542z"/>
		<path display="inline" fill-rule="evenodd" clip-rule="evenodd" fill="#C6C184" d="M368.033,55.815
			c-0.168-0.237-0.296-0.476-0.379-0.72c-0.084-0.239-0.121-0.494-0.121-0.757c0.008-0.466,0.092-0.897,0.259-1.292
			c0.175-0.396,0.379-0.739,0.638-1.037c0.25-0.3,0.51-0.528,0.768-0.694c0.262-0.157,0.482-0.247,0.668-0.247
			c0.193,0,0.361,0.063,0.48,0.194c0.121,0.122,0.188,0.307,0.188,0.545c0,0.386-0.205,0.914-0.62,1.564
			C369.496,54.031,368.865,54.839,368.033,55.815z M368.033,57.028c0.332,0.209,0.667,0.36,0.997,0.447
			c0.335,0.089,0.667,0.133,1.003,0.133c0.621-0.009,1.221-0.15,1.803-0.413c0.584-0.272,1.111-0.59,1.585-0.978
			c0.472-0.376,0.851-0.745,1.13-1.106c0.274-0.351,0.414-0.631,0.425-0.824c0-0.08,0-0.142-0.019-0.195
			c-0.02-0.044-0.065-0.07-0.148-0.07c-0.204,0.018-0.443,0.158-0.713,0.439c-0.277,0.272-0.602,0.599-0.973,0.959
			c-0.377,0.359-0.823,0.684-1.334,0.957c-0.517,0.282-1.118,0.422-1.813,0.44c-0.388,0-0.833-0.158-1.331-0.475
			c0.553-0.659,1.045-1.258,1.463-1.793c0.415-0.528,0.73-1.029,0.961-1.495c0.231-0.466,0.353-0.939,0.353-1.406
			c0-0.403-0.121-0.728-0.37-0.983c-0.244-0.246-0.604-0.379-1.075-0.387c-0.546,0.008-1.063,0.192-1.563,0.563
			c-0.499,0.36-0.907,0.852-1.223,1.458c-0.314,0.616-0.48,1.293-0.49,2.04c0,0.369,0.055,0.729,0.166,1.072
			c0.111,0.351,0.279,0.692,0.5,1.036c-1.36,1.584-2.637,2.867-3.823,3.877c-1.185,1.002-2.213,1.74-3.092,2.214
			c-0.879,0.484-1.537,0.722-1.972,0.713c-0.361,0-0.611-0.053-0.769-0.177c-0.157-0.122-0.23-0.324-0.23-0.614
			c0.009-0.519,0.351-1.229,1.026-2.136c0.676-0.905,1.629-2.039,2.861-3.401c0.583-0.642,1.092-1.248,1.546-1.812
			c0.444-0.554,0.796-1.107,1.057-1.635c0.259-0.536,0.388-1.098,0.397-1.669c0-0.633-0.157-1.108-0.465-1.424
			c-0.314-0.316-0.787-0.475-1.424-0.475c-0.611,0.009-1.249,0.167-1.916,0.475c-0.678,0.309-1.334,0.702-1.983,1.169
			c-0.637,0.466-1.229,0.958-1.75,1.45c-0.526,0.501-0.942,0.949-1.258,1.345c-0.315,0.395-0.471,0.677-0.481,0.835
			c0,0.078,0.027,0.141,0.074,0.193c0.036,0.044,0.092,0.07,0.148,0.07c0.185-0.009,0.435-0.167,0.759-0.457
			c0.325-0.292,0.694-0.65,1.121-1.082c0.425-0.438,0.87-0.869,1.351-1.3c0.48-0.432,0.962-0.791,1.453-1.081
			c0.491-0.3,0.961-0.449,1.428-0.458c0.193,0,0.342,0.053,0.449,0.141c0.105,0.097,0.161,0.229,0.161,0.388
			c-0.011,0.333-0.325,0.861-0.926,1.591c-0.612,0.729-1.454,1.714-2.52,2.943c-0.702,0.818-1.313,1.574-1.83,2.242
			c-0.512,0.677-0.909,1.301-1.188,1.881s-0.425,1.143-0.425,1.679c0.009,0.72,0.229,1.283,0.666,1.696
			c0.435,0.403,1.046,0.615,1.832,0.624c0.806,0,1.74-0.265,2.814-0.782c1.074-0.526,2.26-1.319,3.537-2.391
			C365.273,60.017,366.617,58.662,368.033,57.028z M373.479,59.875l6.724-8.543c0.222-0.271,0.377-0.51,0.472-0.721
			c0.092-0.21,0.138-0.352,0.138-0.439c0-0.13-0.092-0.237-0.287-0.308c-0.195-0.08-0.49-0.113-0.879-0.113
			c-0.436,0-0.796,0.044-1.084,0.131c-0.286,0.08-0.546,0.221-0.768,0.415c-0.231,0.192-0.463,0.446-0.723,0.764
			c-0.248,0.316-0.556,0.712-0.926,1.168c-1.212,1.486-2.25,2.805-3.119,3.956s-1.535,2.179-1.998,3.094
			c-0.474,0.914-0.705,1.766-0.713,2.549c0,0.747,0.201,1.318,0.619,1.714c0.406,0.396,1.019,0.598,1.823,0.606
			c0.86,0,1.981-0.413,3.362-1.249c1.377-0.834,2.997-2.1,4.858-3.813c1.445-1.347,2.537-2.427,3.278-3.236
			c0.738-0.799,1.109-1.326,1.109-1.563c0-0.213-0.109-0.317-0.332-0.317c-0.139,0-0.381,0.185-0.723,0.544
			c-0.342,0.361-0.833,0.88-1.482,1.564c-0.646,0.687-1.508,1.513-2.571,2.479c-1.75,1.557-3.225,2.709-4.417,3.464
			c-1.194,0.755-2.109,1.125-2.75,1.125c-0.333,0-0.574-0.054-0.721-0.168c-0.15-0.122-0.224-0.306-0.224-0.57
			c0-0.236,0.103-0.58,0.313-1.011C372.676,60.965,373.009,60.456,373.479,59.875z M382.201,47.853
			c0.287-0.009,0.557-0.088,0.815-0.238c0.26-0.158,0.481-0.37,0.647-0.632c0.168-0.264,0.249-0.555,0.258-0.87
			c-0.009-0.273-0.109-0.492-0.304-0.678c-0.193-0.176-0.462-0.264-0.806-0.271c-0.296,0-0.583,0.079-0.841,0.228
			c-0.262,0.142-0.474,0.336-0.63,0.58c-0.158,0.246-0.241,0.528-0.252,0.826c0.011,0.317,0.12,0.572,0.324,0.765
			C381.627,47.746,381.887,47.844,382.201,47.853z M395.314,52.861c0.25-0.008,0.491-0.088,0.741-0.237
			c0.243-0.157,0.445-0.367,0.611-0.633c0.167-0.263,0.25-0.553,0.261-0.87c0-0.605-0.224-1.054-0.669-1.354
			c-0.442-0.288-1.11-0.44-1.997-0.44c-0.77,0-1.595,0.133-2.482,0.405c-0.889,0.272-1.814,0.687-2.758,1.23
			c-0.945,0.546-1.88,1.23-2.816,2.058c-1.275,1.134-2.229,2.303-2.87,3.507c-0.639,1.204-0.963,2.426-0.963,3.665
			c0.012,0.817,0.167,1.529,0.474,2.145c0.314,0.615,0.75,1.099,1.314,1.441c0.565,0.343,1.223,0.518,1.991,0.527
			c1.092,0,2.378-0.413,3.87-1.249c1.479-0.834,3.117-2.099,4.906-3.814c1.443-1.406,2.526-2.522,3.25-3.365
			c0.72-0.844,1.081-1.373,1.081-1.59c0-0.213-0.11-0.317-0.333-0.317c-0.138,0-0.342,0.141-0.601,0.413
			c-0.261,0.28-0.612,0.686-1.075,1.229c-0.462,0.537-1.072,1.205-1.822,1.996c-1.871,1.898-3.548,3.313-5.027,4.246
			c-1.48,0.93-2.713,1.396-3.693,1.396c-0.694,0-1.224-0.185-1.574-0.555c-0.361-0.368-0.537-0.922-0.537-1.66
			c0-0.826,0.351-1.828,1.046-2.998c0.704-1.177,1.76-2.478,3.176-3.91c1.129-1.168,2.1-2.058,2.916-2.663
			c0.823-0.617,1.573-0.923,2.25-0.923c0.221,0,0.38,0.025,0.471,0.097c0.092,0.07,0.141,0.192,0.141,0.378
			c-0.011,0.104-0.065,0.236-0.167,0.387c-0.093,0.157-0.15,0.325-0.166,0.509c0.008,0.271,0.118,0.493,0.322,0.668
			C394.788,52.766,395.029,52.854,395.314,52.861z M399.542,57.819c1.194-1.652,2.313-3.022,3.371-4.104
			c1.046-1.081,1.962-1.891,2.749-2.426c0.777-0.536,1.369-0.8,1.768-0.8c0.287,0.009,0.52,0.088,0.712,0.246
			c0.188,0.158,0.279,0.351,0.288,0.597c0,0.642-0.344,1.354-1.017,2.137c-0.679,0.781-1.677,1.556-3,2.32
			C403.097,56.545,401.467,57.23,399.542,57.819z M399.154,58.928c2.295-0.713,4.213-1.521,5.758-2.417
			c1.537-0.898,2.695-1.803,3.463-2.726c0.777-0.924,1.167-1.775,1.167-2.559c0-0.51-0.169-0.904-0.493-1.194
			c-0.332-0.29-0.813-0.431-1.453-0.439c-0.758,0-1.657,0.184-2.676,0.563c-1.025,0.387-2.119,0.966-3.268,1.757
			c-1.184,0.836-2.183,1.714-3.008,2.638c-0.815,0.923-1.436,1.854-1.853,2.794c-0.425,0.941-0.638,1.856-0.638,2.742
			c0.02,1.302,0.359,2.321,1.046,3.051c0.676,0.729,1.601,1.107,2.786,1.116c1.26,0,2.823-0.502,4.676-1.521
			c1.851-1.019,3.926-2.566,6.211-4.65c1.223-1.142,2.14-2.046,2.75-2.733c0.611-0.686,0.918-1.106,0.918-1.274
			c0-0.104-0.02-0.183-0.047-0.236c-0.037-0.053-0.094-0.079-0.177-0.079c-0.232,0-0.491,0.158-0.788,0.448
			c-0.295,0.297-0.701,0.729-1.201,1.273c-0.5,0.556-1.168,1.214-2.011,1.97c-2.231,2.004-4.184,3.488-5.867,4.456
			c-1.695,0.976-3.065,1.459-4.129,1.451c-0.593-0.01-1.046-0.169-1.379-0.484c-0.335-0.316-0.5-0.746-0.511-1.311
			c0.011-0.526,0.074-1,0.213-1.431C398.783,59.691,398.95,59.296,399.154,58.928z"/>
	</g>
	<g>
		<g>
			<path fill-rule="evenodd" clip-rule="evenodd" fill="#FAFDFC" d="M97.453,30.997l-5.846-15.914
				c-0.226-0.632-0.399-1.131-0.53-1.498c-0.124-0.367-0.218-0.655-0.27-0.852c-0.058-0.201-0.087-0.366-0.101-0.489
				c-0.016-0.129-0.016-0.26-0.016-0.403c-0.006-0.432,0.146-0.779,0.452-1.046c0.313-0.266,0.821-0.467,1.541-0.612
				c0.712-0.138,1.68-0.236,2.893-0.287V8.641c-0.297,0-0.567,0-0.792,0c-0.232,0-0.458,0.008-0.684,0.008
				c-0.226,0.008-0.487,0.014-0.777,0.028c-0.284,0.014-0.64,0.029-1.061,0.053c-1.055,0.063-1.971,0.105-2.749,0.136
				c-0.778,0.021-1.389,0.034-1.833,0.034c-1.003,0-2.225-0.043-3.665-0.128c-0.531-0.037-0.958-0.058-1.293-0.072
				c-0.334-0.022-0.61-0.037-0.829-0.043c-0.225-0.008-0.437-0.016-0.625-0.016c-0.189,0-0.407,0-0.654,0v1.255
				c0.713,0.064,1.315,0.149,1.818,0.266c0.502,0.115,0.931,0.289,1.294,0.526c0.364,0.245,0.691,0.585,0.988,1.022
				c0.299,0.44,0.597,1.023,0.902,1.737c0.299,0.714,0.64,1.608,1.018,2.674l5.802,15.739c0.4,1.082,0.72,1.991,0.953,2.703
				c0.232,0.721,0.4,1.327,0.509,1.816c0.102,0.484,0.174,0.93,0.196,1.319l3.184,0.563c0-0.439,0.051-0.945,0.168-1.5
				c0.108-0.548,0.284-1.188,0.523-1.903c0.24-0.721,0.545-1.549,0.924-2.478l3.795-8.95c0.851-2.034,1.599-3.778,2.239-5.241
				c0.64-1.463,1.2-2.687,1.686-3.668c0.489-0.986,0.932-1.78,1.331-2.386c0.4-0.604,0.786-1.06,1.156-1.375
				c0.371-0.317,0.757-0.534,1.164-0.656c0.407-0.115,0.865-0.188,1.368-0.209V8.641c-0.248,0.016-0.466,0.021-0.648,0.036
				c-0.181,0.008-0.392,0.014-0.64,0.029c-0.239,0.015-0.588,0.036-1.024,0.065c-1.31,0.085-2.355,0.128-3.141,0.128
				c-0.349,0-0.793-0.014-1.332-0.034c-0.537-0.021-1.155-0.052-1.853-0.094c-0.443-0.037-0.815-0.058-1.112-0.072
				c-0.299-0.022-0.567-0.037-0.793-0.043c-0.225-0.008-0.443-0.016-0.669-0.016c-0.218,0-0.465,0-0.741,0v1.255
				c1.17,0.064,2.086,0.173,2.748,0.331c0.662,0.151,1.126,0.375,1.396,0.663c0.27,0.294,0.4,0.677,0.393,1.168
				c0,0.251,0,0.475-0.014,0.676c-0.015,0.204-0.059,0.434-0.124,0.7s-0.175,0.619-0.327,1.059
				c-0.146,0.439-0.357,1.025-0.634,1.751c-0.268,0.729-0.616,1.651-1.038,2.776L97.453,30.997z M114.663,31.731
				c0.007,0.93-0.022,1.687-0.088,2.256c-0.058,0.576-0.182,1.016-0.355,1.318c-0.182,0.303-0.451,0.52-0.808,0.643
				c-0.356,0.121-0.829,0.2-1.411,0.237l-0.784,0.087v1.21c1.264-0.043,2.304-0.08,3.133-0.101c0.829-0.028,1.461-0.044,1.904-0.058
				c0.444-0.008,0.713-0.015,0.807-0.015c0.35,0,0.756,0.007,1.214,0.028c0.465,0.016,0.989,0.036,1.578,0.059
				c0.341,0.021,0.626,0.036,0.844,0.051c0.225,0.014,0.42,0.021,0.588,0.021c0.175,0.007,0.356,0.014,0.553,0.014
				c0.189,0,0.429,0,0.719,0v-1.21l-0.873-0.087c-0.552-0.037-0.996-0.116-1.337-0.246c-0.342-0.127-0.603-0.345-0.786-0.648
				c-0.173-0.309-0.297-0.748-0.362-1.319c-0.059-0.567-0.095-1.317-0.086-2.24v-8.778c-0.008-0.937,0.021-1.686,0.079-2.263
				c0.065-0.583,0.182-1.022,0.356-1.333c0.174-0.311,0.436-0.526,0.777-0.656c0.342-0.129,0.8-0.208,1.359-0.245l0.96-0.086v-1.167
				c-0.377,0-0.698,0-0.938,0c-0.246,0-0.494,0.007-0.741,0.015c-0.239,0.007-0.561,0.015-0.938,0.027
				c-0.676,0.044-1.265,0.072-1.759,0.095c-0.502,0.021-0.902,0.037-1.208,0.037c-0.225,0-0.589-0.016-1.097-0.037
				c-0.51-0.022-1.121-0.051-1.826-0.095c-0.414-0.013-0.763-0.021-1.046-0.027c-0.292-0.008-0.575-0.015-0.859-0.015
				c-0.283,0-0.617,0-1.016,0v1.167L112,18.456c0.596,0.043,1.069,0.131,1.425,0.26c0.363,0.122,0.626,0.339,0.807,0.642
				c0.175,0.303,0.291,0.743,0.349,1.319c0.059,0.575,0.088,1.333,0.081,2.276V31.731z M149.538,17.203c-0.356,0-0.655,0-0.902,0
				c-0.24,0-0.472,0.007-0.683,0.015c-0.219,0.007-0.458,0.015-0.727,0.027c-0.618,0.044-1.134,0.072-1.549,0.095
				c-0.414,0.021-0.669,0.037-0.763,0.037c-0.153,0-0.429-0.016-0.829-0.037c-0.392-0.022-0.887-0.051-1.483-0.095
				c-0.327-0.013-0.633-0.021-0.909-0.027c-0.284-0.008-0.574-0.015-0.887-0.015c-0.305,0-0.669,0-1.083,0v1.211
				c0.814,0.027,1.483,0.085,2.007,0.166c0.523,0.078,0.938,0.207,1.243,0.381c0.305,0.18,0.537,0.417,0.69,0.729
				c0.152,0.31,0.262,0.706,0.335,1.188c0.087,0.519,0.151,1.247,0.21,2.184c0.051,0.929,0.087,2.134,0.116,3.604
				c0.029,1.471,0.052,3.272,0.065,5.412l-10.033-12.28c-0.436-0.541-0.8-1.037-1.091-1.491c-0.29-0.452-0.522-0.864-0.697-1.232
				c-0.342,0.058-0.662,0.107-0.967,0.145c-0.299,0.035-0.611,0.064-0.932,0.085c-0.327,0.022-0.698,0.029-1.111,0.029
				c-0.117,0-0.226,0-0.342,0s-0.27-0.007-0.465-0.015c-0.197,0-0.473-0.008-0.823-0.021c-0.355-0.014-0.828-0.029-1.424-0.051
				l-1.528-0.085v1.254c0.764,0.05,1.36,0.122,1.804,0.201c0.437,0.08,0.764,0.188,0.989,0.331c0.226,0.138,0.401,0.316,0.523,0.549
				c0.087,0.157,0.153,0.425,0.204,0.785c0.05,0.36,0.093,0.885,0.116,1.571c0.022,0.684,0.029,1.6,0.029,2.745
				c0,1.354,0,2.508-0.007,3.444c0,0.944-0.008,1.73-0.022,2.35c-0.007,0.628-0.023,1.14-0.037,1.542
				c-0.014,0.404-0.036,0.758-0.065,1.039c-0.021,0.287-0.051,0.568-0.087,0.836c-0.08,0.569-0.231,1.03-0.458,1.368
				c-0.225,0.341-0.566,0.598-1.017,0.764c-0.443,0.165-1.047,0.281-1.797,0.333v1.21c0.371,0,0.676,0,0.924,0
				c0.248-0.007,0.494-0.014,0.742-0.029c0.254-0.006,0.566-0.027,0.952-0.057c0.48-0.022,0.901-0.043,1.258-0.059
				c0.356-0.021,0.64-0.028,0.836-0.028c0.116,0,0.371,0.007,0.771,0.028c0.392,0.016,0.879,0.036,1.454,0.059
				c0.283,0.015,0.566,0.029,0.836,0.043c0.276,0.014,0.582,0.021,0.916,0.029c0.335,0.007,0.742,0.014,1.215,0.014v-1.21
				c-0.837-0.036-1.512-0.101-2.037-0.188c-0.523-0.086-0.93-0.23-1.22-0.417c-0.299-0.188-0.517-0.462-0.655-0.809
				c-0.146-0.345-0.247-0.8-0.32-1.353c-0.065-0.607-0.124-1.277-0.183-1.997c-0.049-0.728-0.101-1.564-0.151-2.516
				c-0.044-0.952-0.087-2.069-0.124-3.351c-0.043-1.284-0.079-2.783-0.108-4.506l10.382,12.757c0.473,0.599,0.858,1.089,1.142,1.478
				c0.29,0.389,0.522,0.749,0.698,1.066c0.175,0.315,0.334,0.67,0.473,1.045l3.446,0.434c-0.087-0.253-0.16-0.498-0.218-0.736
				c-0.049-0.244-0.101-0.504-0.131-0.791c-0.029-0.29-0.057-0.644-0.065-1.046c-0.015-0.404-0.021-0.902-0.021-1.491
				c0-1.061,0.007-2.148,0.021-3.251c0.022-1.096,0.044-2.169,0.073-3.214c0.028-1.046,0.065-2.019,0.102-2.913
				c0.043-0.893,0.086-1.657,0.131-2.306c0.049-0.642,0.101-1.117,0.152-1.418c0.102-0.814,0.393-1.406,0.88-1.768
				c0.487-0.367,1.221-0.555,2.218-0.568V17.203z M175.819,17.203c-0.356,0-0.653,0-0.901,0c-0.239,0-0.473,0.007-0.684,0.015
				c-0.217,0.007-0.458,0.015-0.728,0.027c-0.617,0.044-1.133,0.072-1.547,0.095c-0.415,0.021-0.669,0.037-0.764,0.037
				c-0.153,0-0.429-0.016-0.829-0.037c-0.392-0.022-0.887-0.051-1.483-0.095c-0.326-0.013-0.632-0.021-0.908-0.027
				c-0.284-0.008-0.575-0.015-0.887-0.015c-0.306,0-0.67,0-1.083,0v1.211c0.814,0.027,1.483,0.085,2.006,0.166
				c0.524,0.078,0.938,0.207,1.242,0.381c0.306,0.18,0.539,0.417,0.692,0.729c0.153,0.31,0.262,0.706,0.335,1.188
				c0.086,0.519,0.152,1.247,0.21,2.184c0.051,0.929,0.087,2.134,0.116,3.604c0.029,1.471,0.05,3.272,0.064,5.412l-10.032-12.28
				c-0.437-0.541-0.8-1.037-1.091-1.491c-0.29-0.452-0.522-0.864-0.698-1.232c-0.342,0.058-0.662,0.107-0.967,0.145
				c-0.298,0.035-0.611,0.064-0.93,0.085c-0.328,0.022-0.699,0.029-1.113,0.029c-0.116,0-0.226,0-0.342,0
				c-0.115,0-0.268-0.007-0.465-0.015c-0.196,0-0.472-0.008-0.821-0.021c-0.356-0.014-0.829-0.029-1.425-0.051l-1.527-0.085v1.254
				c0.763,0.05,1.359,0.122,1.803,0.201c0.437,0.08,0.764,0.188,0.989,0.331c0.225,0.138,0.4,0.316,0.523,0.549
				c0.088,0.157,0.152,0.425,0.204,0.785c0.052,0.36,0.095,0.885,0.117,1.571c0.021,0.684,0.028,1.6,0.028,2.745
				c0,1.354,0,2.508-0.006,3.444c0,0.944-0.007,1.73-0.021,2.35c-0.008,0.628-0.021,1.14-0.037,1.542
				c-0.014,0.404-0.036,0.758-0.065,1.039c-0.021,0.287-0.051,0.568-0.087,0.836c-0.081,0.569-0.233,1.03-0.458,1.368
				c-0.226,0.341-0.568,0.598-1.019,0.764c-0.443,0.165-1.046,0.281-1.795,0.333v1.21c0.371,0,0.676,0,0.923,0
				c0.247-0.007,0.494-0.014,0.742-0.029c0.254-0.006,0.567-0.027,0.952-0.057c0.479-0.022,0.901-0.043,1.257-0.059
				c0.356-0.021,0.64-0.028,0.837-0.028c0.116,0,0.37,0.007,0.77,0.028c0.392,0.016,0.88,0.036,1.454,0.059
				c0.284,0.015,0.567,0.029,0.836,0.043c0.277,0.014,0.581,0.021,0.916,0.029c0.334,0.007,0.742,0.014,1.216,0.014v-1.21
				c-0.838-0.036-1.514-0.101-2.037-0.188c-0.524-0.086-0.931-0.23-1.222-0.417c-0.298-0.188-0.516-0.462-0.654-0.809
				c-0.146-0.345-0.248-0.8-0.321-1.353c-0.065-0.607-0.124-1.277-0.181-1.997c-0.051-0.728-0.102-1.564-0.153-2.516
				c-0.043-0.952-0.087-2.069-0.124-3.351c-0.043-1.284-0.08-2.783-0.109-4.506l10.382,12.757c0.472,0.599,0.858,1.089,1.142,1.478
				c0.292,0.389,0.524,0.749,0.697,1.066c0.174,0.315,0.334,0.67,0.473,1.045l3.446,0.434c-0.086-0.253-0.159-0.498-0.217-0.736
				c-0.051-0.244-0.103-0.504-0.131-0.791c-0.03-0.29-0.059-0.644-0.065-1.046c-0.015-0.404-0.021-0.902-0.021-1.491
				c0-1.061,0.007-2.148,0.021-3.251c0.022-1.096,0.043-2.169,0.073-3.214c0.029-1.046,0.065-2.019,0.1-2.913
				c0.045-0.893,0.089-1.657,0.133-2.306c0.051-0.642,0.102-1.117,0.152-1.418c0.102-0.814,0.393-1.406,0.88-1.768
				c0.486-0.367,1.221-0.555,2.217-0.568V17.203z M191.328,22.909c-0.08,0.686-0.189,1.24-0.327,1.666
				c-0.146,0.426-0.349,0.75-0.619,0.974c-0.268,0.223-0.638,0.373-1.112,0.452c-0.472,0.081-1.077,0.116-1.825,0.108h-1.526v-4.324
				c-0.008-0.728,0.014-1.296,0.05-1.715c0.038-0.41,0.139-0.713,0.284-0.9c0.152-0.188,0.4-0.303,0.734-0.354
				c0.334-0.043,0.793-0.064,1.375-0.057c1.242-0.008,2.261,0.043,3.053,0.158c0.792,0.115,1.432,0.332,1.905,0.663
				c0.48,0.324,0.873,0.808,1.177,1.44c0.298,0.635,0.581,1.464,0.844,2.494h1.527c-0.116-0.713-0.212-1.376-0.277-1.975
				c-0.072-0.599-0.125-1.175-0.159-1.715c-0.03-0.542-0.044-1.089-0.044-1.628c0-0.233,0-0.477,0.008-0.743
				c0.014-0.268,0.037-0.605,0.08-1.031c-0.276,0.173-0.553,0.317-0.814,0.426c-0.27,0.114-0.596,0.201-0.982,0.268
				c-0.385,0.063-0.894,0.115-1.518,0.145c-0.635,0.027-1.447,0.048-2.444,0.056c-1.002,0.015-2.253,0.015-3.751,0.015
				c-0.596,0-1.134,0-1.621,0c-0.487,0-0.967-0.007-1.431-0.015c-0.466,0-0.975-0.015-1.521-0.021
				c-0.538-0.014-1.163-0.029-1.868-0.051c-0.706-0.021-1.542-0.05-2.502-0.085v1.21l0.742,0.086c0.603,0.043,1.09,0.131,1.454,0.26
				c0.363,0.122,0.632,0.339,0.815,0.642c0.181,0.303,0.297,0.743,0.355,1.319c0.058,0.575,0.088,1.333,0.08,2.276v8.778
				c0.008,0.93-0.022,1.687-0.087,2.265c-0.058,0.567-0.182,1.007-0.364,1.317c-0.181,0.302-0.458,0.52-0.822,0.647
				c-0.356,0.132-0.837,0.225-1.432,0.268l-0.742,0.044v1.21c0.939-0.029,1.737-0.05,2.421-0.064
				c0.676-0.016,1.273-0.029,1.796-0.036c0.524-0.008,1.024-0.015,1.49-0.021c0.473,0,0.967-0.007,1.491-0.007
				c0.523,0,1.119,0,1.788,0c1.607,0,2.944,0.007,4.021,0.014c1.076,0.015,1.949,0.035,2.617,0.072
				c0.676,0.036,1.208,0.094,1.593,0.165c0.393,0.074,0.704,0.167,0.938,0.289c0.233,0.123,0.452,0.273,0.647,0.454
				c0.059-0.844,0.138-1.709,0.248-2.616c0.101-0.901,0.232-1.816,0.378-2.738c0.153-0.922,0.32-1.839,0.509-2.732h-1.526
				c-0.349,1.19-0.706,2.156-1.076,2.897c-0.364,0.742-0.815,1.304-1.339,1.695c-0.516,0.388-1.185,0.647-2.006,0.791
				c-0.813,0.138-1.839,0.201-3.083,0.194c-0.741,0.007-1.323-0.006-1.736-0.065c-0.423-0.048-0.713-0.194-0.895-0.431
				c-0.182-0.237-0.291-0.635-0.334-1.184c-0.037-0.546-0.051-1.311-0.043-2.299v-4.322h1.526c0.945-0.016,1.687,0.071,2.211,0.251
				c0.516,0.181,0.9,0.513,1.134,1.009c0.24,0.497,0.408,1.211,0.495,2.154h1.352c-0.043-0.553-0.081-1.045-0.102-1.478
				c-0.03-0.432-0.043-0.849-0.058-1.254c-0.007-0.409-0.015-0.85-0.015-1.333c0-0.424,0.008-0.836,0.015-1.231
				c0.015-0.396,0.028-0.813,0.058-1.255c0.021-0.438,0.059-0.935,0.102-1.492H191.328z M186.748,15.083l7.11-4.366
				c0.319-0.188,0.551-0.382,0.683-0.578c0.131-0.192,0.197-0.426,0.188-0.677c-0.007-0.354-0.108-0.685-0.297-1.001
				c-0.196-0.31-0.443-0.569-0.755-0.763c-0.313-0.204-0.641-0.306-0.998-0.312c-0.167,0-0.32,0.016-0.45,0.058
				c-0.124,0.044-0.263,0.123-0.393,0.245c-0.139,0.115-0.313,0.289-0.509,0.518l-5.89,6.876H186.748z M225.919,23.04
				c-0.087-0.685-0.153-1.311-0.203-1.875c-0.051-0.561-0.087-1.109-0.11-1.643c-0.028-0.532-0.036-1.088-0.036-1.669
				c0-0.132,0-0.328,0.008-0.571c0-0.246,0.015-0.534,0.036-0.858c-0.319,0.369-0.64,0.627-0.945,0.794
				c-0.305,0.166-0.632,0.244-0.975,0.244c-0.152,0-0.334-0.015-0.552-0.036c-0.211-0.028-0.451-0.071-0.712-0.137
				c-0.517-0.114-0.988-0.209-1.403-0.273c-0.414-0.073-0.807-0.122-1.163-0.159c-0.357-0.029-0.705-0.043-1.054-0.043
				c-1.274,0.008-2.371,0.244-3.301,0.706c-0.931,0.469-1.651,1.125-2.167,1.966c-0.508,0.852-0.763,1.848-0.771,2.993
				c0,0.87,0.159,1.657,0.48,2.364c0.32,0.698,0.785,1.282,1.395,1.743c0.255,0.195,0.539,0.382,0.844,0.569
				c0.306,0.187,0.669,0.383,1.091,0.598c0.421,0.217,0.938,0.455,1.541,0.729c0.611,0.273,1.338,0.591,2.196,0.959
				c1.17,0.481,2.006,1.008,2.522,1.563c0.509,0.555,0.764,1.218,0.749,1.982c0,0.691-0.16,1.297-0.471,1.794
				c-0.306,0.504-0.743,0.894-1.309,1.168c-0.567,0.272-1.235,0.411-2.014,0.411c-1.097,0.006-2.049-0.211-2.841-0.643
				c-0.793-0.433-1.462-1.109-1.993-2.032c-0.53-0.914-0.952-2.104-1.271-3.553h-1.398c0.038,0.36,0.06,0.684,0.074,0.965
				c0.022,0.281,0.036,0.556,0.043,0.822c0.007,0.26,0.016,0.547,0.016,0.864c0,0.311,0,0.686,0,1.11c0,0.513,0,0.965,0,1.361
				c-0.008,0.403-0.016,0.801-0.023,1.197c-0.013,0.389-0.036,0.835-0.064,1.332c0.305-0.2,0.567-0.358,0.793-0.468
				c0.225-0.115,0.443-0.194,0.64-0.245c0.195-0.042,0.405-0.064,0.618-0.064c0.16,0,0.333,0.014,0.537,0.036
				c0.196,0.021,0.393,0.051,0.596,0.093c0.668,0.167,1.215,0.297,1.651,0.405c0.436,0.1,0.792,0.179,1.076,0.236
				c0.284,0.058,0.53,0.102,0.742,0.13c0.204,0.022,0.415,0.036,0.625,0.043c0.21,0.008,0.458,0.008,0.749,0.008
				c1.447-0.008,2.711-0.268,3.788-0.771c1.077-0.512,1.906-1.219,2.502-2.134c0.596-0.907,0.901-1.974,0.908-3.193
				c0.008-0.942-0.16-1.766-0.496-2.478c-0.34-0.706-0.894-1.354-1.67-1.946c-0.771-0.592-1.811-1.175-3.113-1.758
				c-0.821-0.367-1.497-0.678-2.036-0.916c-0.537-0.245-0.966-0.447-1.293-0.605c-0.319-0.15-0.574-0.288-0.763-0.396
				c-0.189-0.108-0.349-0.217-0.473-0.324c-0.13-0.102-0.261-0.218-0.406-0.354c-0.24-0.245-0.436-0.532-0.574-0.872
				c-0.139-0.331-0.211-0.677-0.211-1.029c0.008-0.57,0.137-1.068,0.407-1.492c0.268-0.427,0.646-0.758,1.133-0.994
				c0.48-0.245,1.04-0.368,1.687-0.368c1.229,0,2.254,0.404,3.089,1.203c0.829,0.8,1.448,1.967,1.84,3.51H225.919z M242.213,24.726
				l4.1-3.804c0.625-0.542,1.157-0.974,1.593-1.306c0.444-0.332,0.836-0.591,1.193-0.763c0.356-0.182,0.719-0.302,1.082-0.368
				c0.371-0.071,0.801-0.107,1.28-0.115v-1.167h-0.612c-0.21,0-0.377,0-0.508,0c-0.13,0-0.283,0.007-0.451,0.015
				c-0.167,0.007-0.414,0.015-0.741,0.027c-0.415,0.021-0.793,0.044-1.134,0.058c-0.341,0.022-0.633,0.029-0.873,0.029
				c-0.218,0-0.487,0-0.8-0.007c-0.313,0-0.662-0.016-1.033-0.036c-0.385-0.022-0.705-0.036-0.944-0.051
				c-0.247-0.014-0.466-0.021-0.647-0.028c-0.181,0-0.377-0.007-0.583-0.007c-0.195,0-0.45,0-0.749,0v1.167l1.005,0.086
				c0.616,0.015,1.046,0.066,1.278,0.152c0.233,0.079,0.349,0.215,0.335,0.411c0.006,0.15-0.058,0.345-0.197,0.575
				c-0.13,0.238-0.37,0.556-0.712,0.967c-0.349,0.402-0.829,0.943-1.448,1.614l-4.929,5.23v-4.453
				c-0.007-0.937,0.021-1.686,0.08-2.263c0.065-0.583,0.182-1.022,0.356-1.333c0.173-0.311,0.436-0.526,0.778-0.656
				c0.341-0.129,0.799-0.208,1.359-0.245l0.961-0.086v-1.167h-0.743c-0.283,0-0.509,0-0.675,0c-0.168,0-0.349,0.007-0.538,0.015
				c-0.189,0.007-0.459,0.015-0.792,0.027c-1.308,0.087-2.269,0.132-2.879,0.132c-0.262,0-0.625-0.009-1.09-0.03
				c-0.459-0.015-0.996-0.037-1.614-0.058c-0.364-0.022-0.677-0.036-0.93-0.051c-0.256-0.014-0.488-0.021-0.698-0.028
				c-0.212,0-0.43-0.007-0.662-0.007c-0.225,0-0.495,0-0.808,0v1.167l0.743,0.086c0.603,0.043,1.09,0.131,1.454,0.26
				c0.363,0.122,0.632,0.339,0.814,0.642c0.183,0.303,0.298,0.743,0.356,1.319c0.058,0.575,0.087,1.333,0.08,2.276v8.778
				c0.007,0.93-0.022,1.687-0.087,2.256c-0.059,0.569-0.181,1.002-0.363,1.304c-0.182,0.296-0.459,0.513-0.822,0.635
				c-0.356,0.13-0.837,0.217-1.432,0.26l-0.743,0.087v1.21c0.292,0,0.531,0,0.734,0c0.205,0,0.401-0.007,0.589-0.014
				c0.197,0,0.422-0.008,0.683-0.021c0.262-0.015,0.597-0.029,1.004-0.051c0.589-0.022,1.112-0.043,1.571-0.059
				c0.458-0.021,0.851-0.028,1.178-0.028c0.348,0,0.763,0.007,1.228,0.028c0.466,0.016,0.976,0.036,1.519,0.059
				c0.379,0.021,0.685,0.036,0.917,0.051c0.233,0.014,0.442,0.021,0.618,0.021c0.174,0.007,0.364,0.014,0.56,0.014
				c0.197,0,0.443,0,0.741,0v-1.21l-0.917-0.087c-0.384-0.021-0.748-0.093-1.104-0.202c-0.356-0.115-0.625-0.244-0.815-0.404
				c-0.144-0.137-0.26-0.33-0.348-0.569c-0.095-0.237-0.16-0.554-0.205-0.937c-0.035-0.382-0.057-0.857-0.057-1.433
				c0-0.751,0.006-1.348,0.021-1.796c0.015-0.454,0.051-0.807,0.101-1.066c0.059-0.259,0.146-0.475,0.262-0.648
				c0.116-0.173,0.283-0.359,0.487-0.556l0.785-0.863l5.321,7.177c0.344,0.433,0.598,0.786,0.756,1.044
				c0.168,0.268,0.27,0.514,0.322,0.735c0.043,0.226,0.064,0.498,0.057,0.815c0,0.064,0,0.152-0.007,0.253
				c0,0.107-0.015,0.223-0.036,0.353c0.211-0.202,0.407-0.353,0.573-0.462c0.175-0.108,0.372-0.179,0.583-0.215
				c0.211-0.044,0.48-0.058,0.807-0.058l5.061,0.129v-1.21c-0.458-0.015-0.844-0.059-1.157-0.115
				c-0.313-0.064-0.611-0.188-0.887-0.368c-0.27-0.188-0.582-0.469-0.923-0.843c-0.349-0.374-0.786-0.888-1.309-1.528
				L242.213,24.726z M271.288,30.175c-0.351,1.182-0.713,2.147-1.09,2.896c-0.386,0.751-0.829,1.335-1.346,1.739
				c-0.517,0.41-1.163,0.69-1.926,0.848c-0.764,0.16-1.71,0.232-2.835,0.224c-0.518,0.009-0.924-0.014-1.214-0.063
				c-0.285-0.059-0.496-0.21-0.619-0.461c-0.124-0.252-0.203-0.664-0.233-1.247c-0.021-0.577-0.035-1.385-0.029-2.422v-8.735
				c0-1.008,0.023-1.788,0.073-2.326c0.06-0.55,0.146-0.93,0.278-1.132c0.16-0.29,0.449-0.526,0.857-0.714
				c0.407-0.188,0.879-0.296,1.411-0.325l1.091-0.042V17.16c-0.474,0.021-0.851,0.035-1.141,0.05
				c-0.285,0.015-0.517,0.022-0.684,0.022c-0.174,0.006-0.32,0.013-0.45,0.013c-0.132,0-0.27,0-0.429,0
				c-0.576,0.028-1.083,0.051-1.533,0.072c-0.453,0.022-0.815,0.037-1.092,0.044c-0.283,0.007-0.45,0.016-0.516,0.016
				c-0.32,0-0.718-0.009-1.199-0.03c-0.473-0.015-1.047-0.037-1.723-0.058c-0.459-0.022-0.873-0.044-1.237-0.057
				c-0.37-0.022-0.683-0.029-0.945-0.029h-0.653v1.167l0.742,0.086c0.581,0.037,1.052,0.116,1.416,0.245
				c0.357,0.13,0.633,0.346,0.823,0.656c0.181,0.311,0.313,0.75,0.377,1.333c0.059,0.577,0.096,1.326,0.088,2.263v8.778
				c0.008,0.93-0.021,1.687-0.081,2.256c-0.057,0.569-0.174,1.002-0.357,1.304c-0.181,0.296-0.448,0.513-0.812,0.635
				c-0.365,0.13-0.852,0.217-1.454,0.26l-0.742,0.087v1.21c0.944-0.029,1.76-0.05,2.443-0.064c0.683-0.016,1.278-0.029,1.802-0.036
				c0.516-0.008,1.002-0.015,1.446-0.021c0.452,0,0.909-0.007,1.39-0.007c0.473,0,1.004,0,1.599,0c1.418,0,2.596,0,3.534,0.014
				c0.939,0.007,1.694,0.029,2.275,0.065c0.582,0.028,1.047,0.079,1.396,0.151c0.348,0.071,0.653,0.173,0.902,0.295
				c0.255,0.123,0.516,0.28,0.792,0.469c0.014-0.758,0.059-1.543,0.138-2.35c0.073-0.807,0.189-1.687,0.334-2.638
				c0.154-0.95,0.342-2.011,0.576-3.186H271.288z"/>
			<path fill-rule="evenodd" clip-rule="evenodd" fill="#FAFDFC" d="M287.667,22.909c-0.079,0.686-0.188,1.24-0.325,1.666
				c-0.146,0.426-0.352,0.75-0.621,0.974c-0.268,0.223-0.639,0.373-1.109,0.452c-0.474,0.081-1.078,0.116-1.826,0.108h-1.527v-4.324
				c-0.006-0.728,0.014-1.296,0.05-1.715c0.037-0.41,0.139-0.713,0.283-0.9c0.153-0.188,0.401-0.303,0.734-0.354
				c0.334-0.043,0.792-0.064,1.375-0.057c1.244-0.008,2.26,0.043,3.054,0.158c0.792,0.115,1.431,0.332,1.904,0.663
				c0.481,0.324,0.871,0.808,1.179,1.44c0.297,0.635,0.583,1.464,0.842,2.494h1.527c-0.115-0.713-0.209-1.376-0.276-1.975
				c-0.073-0.599-0.122-1.175-0.159-1.715c-0.029-0.542-0.043-1.089-0.043-1.628c0-0.233,0-0.477,0.006-0.743
				c0.016-0.268,0.037-0.605,0.082-1.031c-0.278,0.173-0.555,0.317-0.816,0.426c-0.27,0.114-0.596,0.201-0.982,0.268
				c-0.383,0.063-0.893,0.115-1.518,0.145c-0.633,0.027-1.447,0.048-2.444,0.056c-1.003,0.015-2.251,0.015-3.751,0.015
				c-0.595,0-1.133,0-1.621,0c-0.486,0-0.966-0.007-1.432-0.015c-0.464,0-0.975-0.015-1.521-0.021
				c-0.537-0.014-1.162-0.029-1.869-0.051c-0.704-0.021-1.539-0.05-2.501-0.085v1.21l0.743,0.086c0.604,0.043,1.09,0.131,1.453,0.26
				c0.364,0.122,0.632,0.339,0.814,0.642c0.182,0.303,0.297,0.743,0.356,1.319c0.059,0.575,0.089,1.333,0.081,2.276v8.778
				c0.008,0.93-0.022,1.687-0.086,2.265c-0.06,0.567-0.183,1.007-0.367,1.317c-0.18,0.302-0.456,0.52-0.819,0.647
				c-0.356,0.132-0.837,0.225-1.433,0.268l-0.743,0.044v1.21c0.938-0.029,1.738-0.05,2.421-0.064
				c0.677-0.016,1.272-0.029,1.795-0.036c0.523-0.008,1.026-0.015,1.49-0.021c0.473,0,0.968-0.007,1.492-0.007
				c0.523,0,1.12,0,1.788,0c1.609,0,2.945,0.007,4.021,0.014c1.077,0.015,1.948,0.035,2.618,0.072
				c0.675,0.036,1.206,0.094,1.592,0.165c0.393,0.074,0.704,0.167,0.938,0.289c0.233,0.123,0.45,0.273,0.649,0.454
				c0.056-0.844,0.135-1.709,0.246-2.616c0.102-0.901,0.23-1.816,0.377-2.738c0.152-0.922,0.319-1.839,0.51-2.732h-1.527
				c-0.351,1.19-0.707,2.156-1.078,2.897c-0.363,0.742-0.813,1.304-1.335,1.695c-0.519,0.388-1.187,0.647-2.007,0.791
				c-0.813,0.138-1.84,0.201-3.085,0.194c-0.741,0.007-1.32-0.006-1.736-0.065c-0.422-0.048-0.712-0.194-0.895-0.431
				c-0.182-0.237-0.29-0.635-0.334-1.184c-0.037-0.546-0.05-1.311-0.043-2.299v-4.322h1.527c0.944-0.016,1.686,0.071,2.209,0.251
				c0.518,0.181,0.902,0.513,1.136,1.009c0.239,0.497,0.408,1.211,0.493,2.154h1.353c-0.044-0.553-0.079-1.045-0.103-1.478
				c-0.027-0.432-0.043-0.849-0.059-1.254c-0.006-0.409-0.014-0.85-0.014-1.333c0-0.424,0.008-0.836,0.014-1.231
				c0.016-0.396,0.031-0.813,0.059-1.255c0.023-0.438,0.059-0.935,0.103-1.492H287.667z M304.135,28.402h0.132l1.788,0.042
				c1.737-0.006,3.258-0.28,4.543-0.814c1.294-0.54,2.299-1.289,3.011-2.262c0.713-0.967,1.075-2.104,1.083-3.409
				c0.008-1.664-0.529-2.889-1.6-3.689c-1.068-0.799-2.705-1.204-4.899-1.196l-1.833,0.044c-0.925,0.049-1.664,0.093-2.217,0.121
				s-0.982,0.051-1.295,0.064c-0.313,0.015-0.568,0.022-0.771,0.022c-0.201,0.007-0.413,0.007-0.646,0.007
				c-0.317,0-0.641,0-0.945-0.007c-0.305,0-0.633-0.016-0.973-0.036l-2.14-0.086l-1.134-0.043v1.21l0.744,0.086
				c0.594,0.043,1.074,0.138,1.431,0.267c0.363,0.131,0.64,0.348,0.821,0.65c0.183,0.309,0.305,0.749,0.362,1.317
				c0.066,0.577,0.096,1.326,0.089,2.263v8.778c0,0.988-0.022,1.759-0.072,2.313c-0.059,0.555-0.146,0.938-0.277,1.146
				c-0.16,0.288-0.457,0.525-0.879,0.714c-0.431,0.188-0.916,0.294-1.475,0.323l-0.744,0.044v1.21c0.342,0,0.633-0.007,0.88-0.014
				c0.254-0.008,0.509-0.016,0.771-0.029s0.582-0.028,0.967-0.043c0.678-0.022,1.266-0.043,1.754-0.059
				c0.486-0.021,0.863-0.028,1.125-0.028c0.066,0,0.241,0.007,0.545,0.015c0.3,0.008,0.691,0.021,1.18,0.043
				c0.494,0.021,1.046,0.044,1.679,0.072c0.247,0,0.451,0,0.634,0c0.175,0,0.355,0,0.546,0.008c0.188,0,0.429,0.006,0.712,0.006
				c0.283,0.008,0.662,0.016,1.119,0.029v-1.21l-1.482-0.044c-0.444-0.021-0.852-0.108-1.223-0.245
				c-0.371-0.145-0.647-0.339-0.828-0.576c-0.132-0.152-0.234-0.36-0.298-0.635c-0.073-0.273-0.116-0.655-0.146-1.138
				c-0.028-0.483-0.036-1.118-0.036-1.903V28.402z M304.135,21.354c0.016-0.54,0.021-0.923,0.028-1.161
				c0.008-0.244,0.017-0.396,0.029-0.474c0.009-0.073,0.015-0.138,0.029-0.183c0.059-0.321,0.255-0.561,0.596-0.72
				c0.335-0.158,0.851-0.229,1.542-0.229c1.301-0.015,2.241,0.267,2.813,0.836c0.583,0.567,0.866,1.484,0.852,2.753
				c0.007,1.657-0.465,2.882-1.423,3.668c-0.954,0.785-2.444,1.183-4.466,1.174V21.354z M328.41,27.538l-3.663-6.142
				c-0.269-0.489-0.48-0.879-0.634-1.153c-0.146-0.281-0.255-0.49-0.318-0.627c-0.065-0.136-0.109-0.238-0.125-0.309
				c-0.016-0.065-0.016-0.131-0.016-0.202c-0.004-0.188,0.066-0.332,0.211-0.434c0.147-0.1,0.423-0.173,0.83-0.216
				c0.409-0.05,0.989-0.072,1.752-0.086v-1.21c-0.313,0.015-0.574,0.021-0.784,0.027c-0.212,0.008-0.438,0.016-0.67,0.03
				c-0.231,0.007-0.532,0.015-0.901,0.027c-0.633,0.044-1.186,0.072-1.649,0.095c-0.467,0.021-0.837,0.037-1.098,0.037
				c-0.24,0-0.604-0.016-1.09-0.037c-0.483-0.022-1.063-0.051-1.746-0.095c-0.357-0.013-0.647-0.021-0.88-0.027
				c-0.241-0.015-0.466-0.022-0.691-0.03c-0.225-0.007-0.5-0.013-0.829-0.027v1.21c0.525,0.036,0.954,0.086,1.272,0.152
				c0.328,0.071,0.611,0.2,0.857,0.396c0.254,0.202,0.524,0.512,0.822,0.937c0.298,0.426,0.686,1.01,1.149,1.76l3.619,6.053
				c0.292,0.469,0.503,0.843,0.649,1.131c0.144,0.288,0.238,0.541,0.291,0.75c0.048,0.21,0.07,0.432,0.064,0.67v0.734v0.779
				c0,0.895-0.029,1.636-0.096,2.234c-0.058,0.591-0.144,1.003-0.255,1.226c-0.171,0.288-0.458,0.519-0.842,0.69
				c-0.394,0.182-0.88,0.282-1.468,0.304l-1.354,0.087v1.21c0.486-0.014,0.859-0.021,1.134-0.035
				c0.271-0.008,0.501-0.015,0.706-0.021c0.197-0.008,0.43-0.015,0.69-0.029c0.945-0.022,1.737-0.043,2.369-0.059
				c0.626-0.021,1.047-0.028,1.251-0.028c0.27,0,0.689,0.007,1.279,0.028c0.582,0.016,1.288,0.036,2.125,0.059
				c0.209,0.006,0.397,0.021,0.553,0.029c0.158,0,0.326,0.007,0.493,0.014c0.167,0.008,0.379,0.008,0.617,0.014
				c0.247,0.008,0.567,0.016,0.952,0.029v-1.21l-1.352-0.087c-0.582-0.021-1.055-0.102-1.417-0.225
				c-0.356-0.122-0.634-0.331-0.821-0.641c-0.184-0.302-0.308-0.748-0.373-1.324c-0.063-0.578-0.102-1.328-0.094-2.265v-0.779
				c0-0.468,0-0.842,0.014-1.123c0.017-0.281,0.053-0.525,0.104-0.736c0.058-0.208,0.153-0.432,0.291-0.669
				c0.13-0.238,0.311-0.548,0.553-0.93l3.139-4.973c0.626-0.93,1.135-1.673,1.535-2.213c0.407-0.54,0.764-0.944,1.069-1.21
				c0.313-0.261,0.646-0.44,0.987-0.533c0.35-0.095,0.779-0.159,1.296-0.195v-1.21c-0.313,0-0.583,0.006-0.794,0.015
				c-0.218,0.006-0.42,0.013-0.609,0.028c-0.189,0.015-0.408,0.029-0.648,0.042c-0.508,0.044-0.928,0.072-1.279,0.095
				c-0.34,0.021-0.566,0.037-0.685,0.037c-0.021,0-0.224-0.016-0.609-0.037c-0.384-0.022-0.937-0.051-1.657-0.095
				c-0.328,0-0.697-0.007-1.105-0.027c-0.414-0.015-0.857-0.037-1.337-0.058v1.21c0.712,0.03,1.284,0.064,1.722,0.101
				c0.437,0.035,0.771,0.081,0.99,0.145c0.226,0.057,0.377,0.145,0.451,0.245c0.079,0.108,0.115,0.245,0.109,0.418
				c0,0.151-0.044,0.359-0.14,0.627c-0.095,0.267-0.247,0.612-0.45,1.037c-0.203,0.419-0.474,0.944-0.808,1.579L328.41,27.538z"/>
		</g>
		<path fill-rule="evenodd" clip-rule="evenodd" fill="#FAFDFC" d="M77.764,68.487c-0.907,2.934-1.866,5.346-2.852,7.24
			c-0.998,1.893-2.151,3.378-3.472,4.431c-1.335,1.052-2.942,1.794-4.859,2.201c-1.917,0.422-4.25,0.62-7.01,0.606
			c-1.206,0-2.19-0.049-2.968-0.159c-0.765-0.112-1.373-0.299-1.814-0.546c-0.454-0.247-0.804-0.581-1.05-1.001
			c-0.13-0.224-0.22-0.433-0.298-0.645c-0.091-0.198-0.142-0.457-0.195-0.767c-0.039-0.322-0.065-0.769-0.091-1.338
			c-0.013-0.568-0.025-1.336-0.039-2.313c0-0.966,0-2.203,0-3.7V50.072c0-1.87,0.039-3.367,0.117-4.518
			c0.076-1.152,0.219-2.054,0.414-2.723s0.454-1.199,0.791-1.598c0.376-0.396,0.893-0.767,1.555-1.088
			c0.661-0.334,1.412-0.606,2.255-0.816c0.842-0.211,1.724-0.347,2.644-0.396l1.632-0.073v-2.229c-0.738,0-1.385,0.014-1.956,0.026
			c-0.57,0.012-1.167,0.024-1.762,0.049s-1.296,0.05-2.112,0.074c-1.917,0.112-3.551,0.186-4.873,0.235
			c-1.334,0.036-2.306,0.062-2.902,0.062c-0.816,0-1.841-0.025-3.072-0.062c-1.231-0.05-2.643-0.123-4.237-0.235
			c-0.843-0.037-1.556-0.062-2.138-0.087c-0.583-0.024-1.102-0.036-1.542-0.049c-0.44,0-0.869-0.014-1.295-0.014
			c-0.416,0-0.881,0-1.399,0v2.229l1.01,0.073c1.359,0.11,2.54,0.334,3.538,0.645c0.998,0.321,1.788,0.73,2.37,1.212
			c0.39,0.297,0.7,0.657,0.946,1.063c0.247,0.41,0.44,0.941,0.571,1.598c0.128,0.655,0.233,1.522,0.272,2.586
			c0.052,1.065,0.079,2.414,0.079,4.035v22.573c0,1.473-0.013,2.711-0.052,3.725c-0.039,1.003-0.104,1.832-0.194,2.487
			c-0.104,0.656-0.235,1.189-0.416,1.608c-0.168,0.422-0.389,0.78-0.661,1.089c-0.544,0.594-1.374,1.091-2.462,1.486
			c-1.102,0.396-2.422,0.669-3.991,0.816l-1.01,0.075v2.228c2.228-0.062,4.172-0.111,5.818-0.149
			c1.659-0.049,3.109-0.087,4.354-0.11c1.244-0.025,2.358-0.051,3.368-0.062c0.998-0.026,1.958-0.038,2.863-0.038
			c0.921-0.013,1.88-0.013,2.877-0.013c3.706,0,6.843,0.013,9.396,0.037c2.552,0.024,4.653,0.075,6.298,0.148
			c1.646,0.075,2.954,0.187,3.938,0.321c0.985,0.15,1.75,0.335,2.32,0.57c0.571,0.224,1.05,0.507,1.452,0.854
			c0.025-1.721,0.129-3.563,0.323-5.52c0.182-1.943,0.467-4.047,0.83-6.312c0.376-2.264,0.843-4.739,1.413-7.4H77.764z
			 M106.531,61.137c-0.141,1.176-0.336,2.127-0.583,2.857c-0.259,0.729-0.622,1.288-1.101,1.671
			c-0.48,0.385-1.141,0.644-1.982,0.779c-0.842,0.138-1.917,0.199-3.254,0.187h-2.72v-7.426c-0.014-1.249,0.026-2.227,0.09-2.945
			c0.065-0.705,0.247-1.226,0.506-1.548c0.272-0.321,0.713-0.519,1.309-0.606c0.596-0.074,1.413-0.11,2.449-0.097
			c2.215-0.014,4.029,0.073,5.443,0.271c1.412,0.196,2.552,0.568,3.394,1.138c0.856,0.559,1.555,1.387,2.1,2.476
			c0.531,1.088,1.036,2.513,1.503,4.281h2.721c-0.207-1.226-0.375-2.364-0.491-3.39c-0.131-1.027-0.221-2.019-0.286-2.946
			c-0.053-0.927-0.077-1.869-0.077-2.798c0-0.395,0-0.815,0.011-1.274c0.027-0.457,0.066-1.039,0.143-1.769
			c-0.493,0.298-0.984,0.545-1.451,0.729c-0.48,0.198-1.062,0.347-1.75,0.458s-1.594,0.197-2.708,0.248
			c-1.127,0.05-2.579,0.087-4.355,0.099c-1.787,0.024-4.016,0.024-6.687,0.024c-1.062,0-2.021,0-2.889,0
			c-0.867,0-1.723-0.013-2.553-0.024c-0.829,0-1.736-0.024-2.708-0.037c-0.959-0.023-2.074-0.05-3.331-0.087
			s-2.747-0.087-4.458-0.148v2.078l1.323,0.148c1.075,0.076,1.943,0.224,2.591,0.447c0.647,0.21,1.126,0.582,1.451,1.101
			c0.325,0.521,0.532,1.274,0.635,2.265c0.104,0.99,0.155,2.291,0.143,3.911v15.073c0.012,1.598-0.039,2.896-0.156,3.887
			c-0.104,0.977-0.325,1.731-0.648,2.265c-0.324,0.52-0.817,0.892-1.464,1.113c-0.635,0.224-1.49,0.385-2.553,0.459l-1.323,0.074
			v2.079c1.672-0.051,3.098-0.088,4.315-0.111c1.206-0.024,2.268-0.051,3.201-0.062c0.933-0.014,1.827-0.025,2.657-0.037
			c0.842,0,1.723-0.012,2.656-0.012c0.933,0,1.996,0,3.188,0c2.864,0,5.248,0.012,7.167,0.023c1.918,0.025,3.472,0.063,4.665,0.124
			c1.205,0.061,2.151,0.16,2.839,0.285c0.699,0.123,1.257,0.283,1.671,0.494c0.415,0.21,0.804,0.471,1.152,0.779
			c0.104-1.447,0.248-2.933,0.441-4.492c0.182-1.548,0.415-3.119,0.674-4.703c0.272-1.584,0.569-3.155,0.908-4.689h-2.722
			c-0.623,2.041-1.257,3.699-1.918,4.974c-0.647,1.275-1.452,2.239-2.385,2.909c-0.919,0.668-2.112,1.114-3.577,1.361
			c-1.451,0.234-3.278,0.346-5.494,0.334c-1.322,0.012-2.358-0.012-3.097-0.111c-0.751-0.087-1.271-0.334-1.595-0.743
			c-0.324-0.408-0.518-1.088-0.595-2.028c-0.065-0.941-0.091-2.253-0.078-3.949v-7.424h2.72c1.686-0.025,3.007,0.123,3.94,0.433
			c0.92,0.309,1.607,0.878,2.021,1.732c0.428,0.854,0.726,2.08,0.881,3.7h2.41c-0.077-0.952-0.143-1.794-0.181-2.537
			c-0.051-0.742-0.078-1.461-0.103-2.152c-0.014-0.706-0.027-1.462-0.027-2.291c0-0.729,0.013-1.435,0.027-2.116
			c0.025-0.68,0.051-1.398,0.103-2.152c0.039-0.757,0.104-1.608,0.181-2.562H106.531z M153.104,73.61
			c-0.945,2.833-2.344,4.975-4.224,6.423c-1.866,1.461-4.172,2.19-6.894,2.19c-1.606,0-3.071-0.284-4.393-0.853
			c-1.322-0.558-2.398-1.362-3.227-2.414c-0.7-0.878-1.309-1.894-1.801-3.069c-0.493-1.177-0.881-2.437-1.14-3.811
			c-0.272-1.376-0.402-2.786-0.402-4.259c0-1.349,0.104-2.66,0.323-3.96c0.208-1.286,0.519-2.512,0.907-3.639
			c0.389-1.138,0.869-2.141,1.413-3.021c0.791-1.273,1.866-2.239,3.213-2.919c1.348-0.669,2.877-1.015,4.563-1.015
			c1.774-0.013,3.291,0.285,4.56,0.904c1.258,0.618,2.333,1.619,3.214,3.006c0.895,1.387,1.672,3.23,2.333,5.52h2.644
			c-0.104-0.879-0.195-1.71-0.258-2.487c-0.065-0.767-0.117-1.535-0.156-2.314c-0.039-0.768-0.052-1.598-0.052-2.476
			c0-0.506,0.013-1.003,0.026-1.472c0.026-0.483,0.052-1.003,0.104-1.585c0.04-0.569,0.103-1.263,0.181-2.065
			c-0.454,0.654-0.934,1.125-1.424,1.384c-0.494,0.273-1.077,0.408-1.763,0.396c-0.233,0-0.544-0.036-0.908-0.099
			c-0.362-0.05-0.764-0.123-1.192-0.197c-1.231-0.272-2.267-0.495-3.096-0.669c-0.842-0.173-1.568-0.297-2.177-0.384
			c-0.622-0.086-1.205-0.136-1.763-0.174c-0.544-0.023-1.166-0.037-1.827-0.037c-3.693,0.014-6.894,0.769-9.589,2.266
			c-2.683,1.485-4.756,3.601-6.22,6.337c-1.464,2.735-2.217,5.978-2.229,9.739c0.025,3.687,0.738,6.88,2.137,9.578
			c1.4,2.71,3.382,4.802,5.936,6.287c2.553,1.487,5.559,2.229,9.032,2.254c2.216,0,4.289-0.335,6.208-0.99
			c1.917-0.669,3.667-1.647,5.222-2.946c1.023-0.83,1.879-1.683,2.566-2.562c0.686-0.879,1.244-1.868,1.685-2.971
			c0.44-1.102,0.817-2.4,1.114-3.898H153.104z M172.854,66.111v-5.197c-0.013-1.536,0.052-2.773,0.155-3.727
			c0.117-0.939,0.336-1.67,0.647-2.19c0.325-0.507,0.791-0.879,1.4-1.089c0.609-0.223,1.399-0.357,2.384-0.422l1.556-0.148v-2.004
			c-0.479,0-0.869,0-1.192,0c-0.325,0-0.635,0-0.921,0.012c-0.285,0-0.608,0.015-0.985,0.025c-0.362,0-0.842,0.012-1.412,0.037
			c-1.166,0.075-2.203,0.124-3.123,0.161c-0.919,0.037-1.736,0.063-2.475,0.063c-0.623,0-1.335-0.014-2.151-0.05
			c-0.817-0.025-1.738-0.062-2.747-0.099c-0.765-0.038-1.386-0.063-1.854-0.087c-0.466-0.025-0.867-0.036-1.192-0.051
			c-0.324,0-0.648-0.012-0.973-0.012c-0.324,0-0.711,0-1.192,0v2.004l1.322,0.148c1.075,0.076,1.943,0.224,2.591,0.434
			c0.647,0.198,1.128,0.557,1.451,1.053c0.324,0.494,0.531,1.212,0.636,2.166c0.104,0.953,0.156,2.215,0.142,3.775v15.369
			c0.014,1.584-0.039,2.872-0.156,3.85c-0.104,0.979-0.324,1.732-0.647,2.266c-0.324,0.519-0.817,0.891-1.464,1.112
			c-0.635,0.223-1.49,0.36-2.553,0.422l-1.322,0.148v2.079c0.687,0,1.271-0.014,1.763-0.024c0.493-0.014,0.998-0.026,1.502-0.05
			c0.506-0.024,1.127-0.05,1.867-0.075c1.125-0.037,2.111-0.072,2.94-0.098c0.83-0.038,1.491-0.051,1.956-0.051
			c0.363,0,1,0.013,1.931,0.051c0.921,0.025,2.06,0.061,3.434,0.098c0.584,0.025,1.102,0.051,1.556,0.075
			c0.467,0.023,0.946,0.036,1.452,0.05c0.492,0.011,1.102,0.024,1.814,0.024v-2.079l-1.556-0.148
			c-0.985-0.038-1.775-0.174-2.384-0.396c-0.609-0.21-1.075-0.582-1.4-1.113c-0.312-0.533-0.531-1.288-0.647-2.278
			c-0.104-0.989-0.168-2.277-0.155-3.861v-7.425h15.083v7.425c0.014,1.598-0.038,2.896-0.142,3.875
			c-0.117,0.988-0.324,1.743-0.648,2.265c-0.323,0.521-0.803,0.891-1.438,1.102c-0.635,0.209-1.478,0.347-2.514,0.408l-1.4,0.148
			v2.079c0.765,0,1.4-0.014,1.931-0.024c0.519-0.014,1.05-0.026,1.555-0.05c0.52-0.024,1.154-0.05,1.879-0.075
			c1.219-0.037,2.243-0.072,3.098-0.098c0.853-0.038,1.477-0.051,1.879-0.051c0.505,0,1.179,0.013,2.021,0.051
			c0.842,0.025,1.827,0.061,2.954,0.098c0.726,0.051,1.335,0.088,1.802,0.099c0.479,0.026,0.946,0.037,1.399,0.037
			c0.453,0.014,1.023,0.014,1.698,0.014v-2.079l-1.555-0.148c-0.985-0.062-1.775-0.199-2.385-0.422
			c-0.608-0.222-1.076-0.594-1.399-1.112c-0.311-0.533-0.531-1.287-0.648-2.266c-0.104-0.978-0.168-2.266-0.156-3.85V60.914
			c-0.012-1.548,0.04-2.798,0.144-3.751c0.116-0.952,0.323-1.684,0.635-2.19c0.311-0.507,0.778-0.867,1.386-1.077
			c0.609-0.21,1.426-0.345,2.424-0.409l1.555-0.148v-2.004c-0.492,0-0.908,0-1.245,0c-0.324,0-0.648,0-0.932,0.012
			c-0.286,0-0.623,0.015-0.998,0.025c-0.364,0-0.843,0.012-1.413,0.037c-1.128,0.075-2.139,0.124-3.02,0.161
			c-0.894,0.037-1.646,0.063-2.267,0.063c-0.583,0-1.296-0.014-2.139-0.05c-0.842-0.025-1.788-0.062-2.838-0.099
			c-0.687-0.038-1.257-0.063-1.71-0.087c-0.453-0.025-0.854-0.036-1.205-0.051c-0.351,0-0.712-0.012-1.088-0.012
			c-0.377,0-0.831,0-1.362,0v2.004l1.4,0.148c1.036,0.064,1.878,0.199,2.514,0.409c0.635,0.21,1.115,0.57,1.438,1.077
			c0.324,0.507,0.531,1.238,0.648,2.19c0.104,0.953,0.156,2.203,0.142,3.751v5.197H172.854z M226.891,50.517
			c-2.941,0.014-5.624,0.459-8.035,1.35c-2.422,0.878-4.495,2.143-6.246,3.775c-1.735,1.633-3.083,3.576-4.03,5.841
			c-0.945,2.252-1.424,4.764-1.437,7.524c0.013,2.687,0.466,5.123,1.36,7.313c0.907,2.204,2.191,4.097,3.85,5.682
			c1.657,1.583,3.641,2.81,5.948,3.675c2.293,0.854,4.847,1.287,7.658,1.301c2.968-0.014,5.65-0.46,8.048-1.338
			c2.397-0.879,4.458-2.142,6.181-3.774c1.723-1.646,3.045-3.601,3.964-5.878c0.921-2.29,1.389-4.839,1.4-7.648
			c-0.026-3.638-0.791-6.782-2.319-9.443c-1.517-2.661-3.667-4.715-6.453-6.162C233.993,51.272,230.702,50.543,226.891,50.517z
			 M226.581,53.266c2.099,0.012,3.888,0.617,5.364,1.831c1.465,1.199,2.58,2.971,3.357,5.273c0.765,2.313,1.153,5.11,1.153,8.414
			c0,3.305-0.401,6.102-1.179,8.391c-0.791,2.301-1.919,4.048-3.42,5.248c-1.491,1.199-3.292,1.794-5.431,1.808
			c-2.149-0.014-3.99-0.62-5.494-1.832c-1.504-1.202-2.645-2.959-3.42-5.249c-0.791-2.302-1.193-5.087-1.193-8.365
			c0.013-5.063,0.881-8.911,2.618-11.547C220.684,54.602,223.224,53.277,226.581,53.266z M268.643,78.289l-7.384-19.308
			c-0.274-0.729-0.482-1.312-0.638-1.744c-0.169-0.42-0.285-0.755-0.349-0.989c-0.078-0.224-0.13-0.422-0.156-0.569
			c-0.013-0.148-0.027-0.311-0.027-0.483c-0.012-0.444,0.156-0.792,0.507-1.039c0.35-0.248,0.971-0.434,1.866-0.545
			c0.893-0.111,2.151-0.173,3.771-0.199v-2.078c-0.661,0-1.218,0-1.684,0c-0.454,0-0.92,0.012-1.374,0.026
			c-0.466,0.011-1.023,0.022-1.684,0.048c-1.452,0.075-2.684,0.124-3.693,0.161c-1.011,0.037-1.698,0.063-2.061,0.063
			c-0.622,0-1.309-0.014-2.047-0.05c-0.752-0.025-1.567-0.062-2.462-0.099c-0.713-0.038-1.283-0.063-1.723-0.087
			c-0.453-0.025-0.83-0.036-1.141-0.051c-0.324,0-0.635-0.012-0.946-0.012c-0.323,0-0.713,0-1.165,0v2.078
			c1.165,0.051,2.111,0.162,2.824,0.298c0.713,0.149,1.296,0.434,1.776,0.879c0.466,0.445,0.934,1.14,1.386,2.091
			c0.442,0.955,0.985,2.267,1.633,3.937l7.231,18.859c0.465,1.226,0.842,2.267,1.126,3.119c0.287,0.867,0.493,1.585,0.623,2.18
			c0.129,0.581,0.195,1.101,0.195,1.533l5.365,0.968c0-0.607,0.051-1.239,0.181-1.896c0.118-0.656,0.313-1.399,0.596-2.228
			c0.286-0.829,0.674-1.807,1.167-2.933c0.739-1.758,1.516-3.541,2.307-5.334c0.79-1.807,1.581-3.563,2.358-5.285
			c1.335-3.045,2.475-5.557,3.409-7.562c0.919-1.993,1.723-3.576,2.384-4.74c0.66-1.175,1.271-2.041,1.814-2.599
			c0.544-0.557,1.1-0.915,1.685-1.076c0.569-0.161,1.23-0.235,1.981-0.212V51.26c-0.504,0.025-0.933,0.037-1.282,0.062
			c-0.35,0.013-0.699,0.024-1.037,0.05c-0.325,0.025-0.725,0.063-1.18,0.112c-0.815,0.037-1.527,0.073-2.125,0.099
			c-0.595,0.036-1.063,0.05-1.373,0.05c-0.35,0-0.816-0.014-1.413-0.05c-0.582-0.025-1.308-0.062-2.164-0.099
			c-0.688-0.05-1.256-0.087-1.736-0.101c-0.466-0.022-0.934-0.037-1.4-0.049c-0.466,0-1.024,0-1.685,0v2.078l1.712,0.074
			c1.464,0.025,2.499,0.213,3.134,0.545c0.622,0.334,0.921,0.866,0.908,1.61c0,0.296-0.027,0.644-0.091,1.015
			c-0.064,0.371-0.195,0.842-0.362,1.411c-0.182,0.581-0.427,1.324-0.764,2.228c-0.326,0.915-0.753,2.054-1.271,3.439
			L268.643,78.289z M293.99,76.283c0.015,1.598-0.039,2.896-0.154,3.875c-0.105,0.988-0.324,1.743-0.636,2.265
			c-0.325,0.521-0.806,0.891-1.438,1.102c-0.636,0.209-1.479,0.347-2.516,0.408l-1.399,0.148v2.079
			c2.257-0.074,4.108-0.136,5.587-0.173c1.477-0.049,2.604-0.074,3.395-0.101c0.791-0.012,1.269-0.024,1.438-0.024
			c0.621,0,1.347,0.013,2.163,0.051c0.829,0.025,1.763,0.061,2.813,0.098c0.608,0.038,1.116,0.062,1.504,0.088
			c0.4,0.023,0.751,0.037,1.05,0.037c0.309,0.011,0.635,0.024,0.985,0.024c0.336,0,0.765,0,1.281,0v-2.079l-1.554-0.148
			c-0.985-0.062-1.774-0.199-2.386-0.422c-0.606-0.222-1.074-0.594-1.397-1.112c-0.313-0.533-0.533-1.287-0.65-2.266
			c-0.103-0.978-0.167-2.266-0.155-3.85V61.21c-0.012-1.608,0.041-2.896,0.144-3.885c0.116-1.003,0.324-1.758,0.634-2.291
			c0.312-0.532,0.779-0.903,1.387-1.126c0.611-0.223,1.426-0.357,2.425-0.422l1.711-0.148v-2.004c-0.674,0-1.245,0-1.671,0
			c-0.444,0-0.882,0.012-1.323,0.026c-0.429,0.011-0.997,0.022-1.671,0.048c-1.207,0.075-2.255,0.124-3.137,0.161
			c-0.895,0.037-1.608,0.063-2.151,0.063c-0.401,0-1.048-0.025-1.956-0.063c-0.906-0.037-1.997-0.086-3.254-0.161
			c-0.738-0.025-1.36-0.037-1.864-0.048c-0.518-0.015-1.025-0.026-1.53-0.026c-0.506,0-1.102,0-1.815,0v2.004l1.399,0.148
			c1.063,0.076,1.906,0.224,2.542,0.447c0.646,0.21,1.112,0.582,1.438,1.101c0.312,0.521,0.519,1.274,0.621,2.265
			c0.104,0.99,0.158,2.291,0.144,3.911V76.283z M343.828,73.61c-0.945,2.833-2.345,4.975-4.224,6.423
			c-1.866,1.461-4.174,2.19-6.892,2.19c-1.609,0-3.074-0.284-4.396-0.853c-1.321-0.558-2.396-1.362-3.228-2.414
			c-0.698-0.878-1.307-1.894-1.799-3.069c-0.494-1.177-0.883-2.437-1.141-3.811c-0.274-1.376-0.402-2.786-0.402-4.259
			c0-1.349,0.104-2.66,0.323-3.96c0.206-1.286,0.518-2.512,0.908-3.639c0.389-1.138,0.867-2.141,1.412-3.021
			c0.79-1.273,1.866-2.239,3.213-2.919c1.349-0.669,2.876-1.015,4.563-1.015c1.775-0.013,3.292,0.285,4.56,0.904
			c1.257,0.618,2.333,1.619,3.216,3.006c0.893,1.387,1.671,3.23,2.331,5.52h2.645c-0.104-0.879-0.193-1.71-0.26-2.487
			c-0.063-0.767-0.117-1.535-0.153-2.314c-0.042-0.768-0.055-1.598-0.055-2.476c0-0.506,0.013-1.003,0.026-1.472
			c0.028-0.483,0.053-1.003,0.104-1.585c0.038-0.569,0.104-1.263,0.183-2.065c-0.454,0.654-0.935,1.125-1.425,1.384
			c-0.493,0.273-1.076,0.408-1.764,0.396c-0.234,0-0.544-0.036-0.907-0.099c-0.362-0.05-0.763-0.123-1.191-0.197
			c-1.232-0.272-2.269-0.495-3.099-0.669c-0.842-0.173-1.568-0.297-2.177-0.384c-0.621-0.086-1.204-0.136-1.762-0.174
			c-0.544-0.023-1.166-0.037-1.827-0.037c-3.693,0.014-6.895,0.769-9.589,2.266c-2.684,1.485-4.756,3.601-6.222,6.337
			c-1.463,2.735-2.216,5.978-2.227,9.739c0.023,3.687,0.738,6.88,2.137,9.578c1.4,2.71,3.382,4.802,5.936,6.287
			c2.553,1.487,5.559,2.229,9.031,2.254c2.217,0,4.289-0.335,6.209-0.99c1.916-0.669,3.668-1.647,5.222-2.946
			c1.021-0.83,1.879-1.683,2.565-2.562c0.686-0.879,1.244-1.868,1.685-2.971c0.44-1.102,0.815-2.4,1.113-3.898H343.828z
			 M373.22,61.137c-0.144,1.176-0.336,2.127-0.583,2.857c-0.261,0.729-0.623,1.288-1.104,1.671
			c-0.479,0.385-1.139,0.644-1.982,0.779c-0.842,0.138-1.916,0.199-3.25,0.187h-2.722v-7.426c-0.015-1.249,0.025-2.227,0.089-2.945
			c0.065-0.705,0.246-1.226,0.506-1.548c0.272-0.321,0.713-0.519,1.31-0.606c0.596-0.074,1.413-0.11,2.448-0.097
			c2.216-0.014,4.031,0.073,5.443,0.271c1.412,0.196,2.553,0.568,3.395,1.138c0.855,0.559,1.556,1.387,2.099,2.476
			c0.532,1.088,1.037,2.513,1.503,4.281h2.724c-0.208-1.226-0.378-2.364-0.494-3.39c-0.13-1.027-0.221-2.019-0.283-2.946
			c-0.055-0.927-0.079-1.869-0.079-2.798c0-0.395,0-0.815,0.013-1.274c0.025-0.457,0.066-1.039,0.144-1.769
			c-0.494,0.298-0.986,0.545-1.452,0.729c-0.479,0.198-1.063,0.347-1.75,0.458c-0.687,0.111-1.595,0.197-2.709,0.248
			c-1.126,0.05-2.578,0.087-4.354,0.099c-1.788,0.024-4.015,0.024-6.685,0.024c-1.064,0-2.024,0-2.891,0
			c-0.869,0-1.723-0.013-2.553-0.024c-0.831,0-1.736-0.024-2.71-0.037c-0.958-0.023-2.071-0.05-3.329-0.087
			s-2.746-0.087-4.458-0.148v2.078l1.321,0.148c1.075,0.076,1.945,0.224,2.594,0.447c0.645,0.21,1.126,0.582,1.451,1.101
			c0.322,0.521,0.529,1.274,0.634,2.265c0.104,0.99,0.155,2.291,0.142,3.911v15.073c0.014,1.598-0.038,2.896-0.154,3.887
			c-0.104,0.977-0.324,1.731-0.647,2.265c-0.325,0.52-0.817,0.892-1.465,1.113c-0.637,0.224-1.491,0.385-2.554,0.459l-1.321,0.074
			v2.079c1.673-0.051,3.096-0.088,4.315-0.111c1.203-0.024,2.268-0.051,3.201-0.062c0.933-0.014,1.825-0.025,2.657-0.037
			c0.841,0,1.722-0.012,2.653-0.012c0.936,0,1.997,0,3.189,0c2.865,0,5.25,0.012,7.166,0.023c1.918,0.025,3.473,0.063,4.664,0.124
			c1.205,0.061,2.152,0.16,2.84,0.285c0.699,0.123,1.256,0.283,1.672,0.494c0.413,0.21,0.803,0.471,1.153,0.779
			c0.103-1.447,0.246-2.933,0.44-4.492c0.181-1.548,0.414-3.119,0.673-4.703c0.272-1.584,0.57-3.155,0.908-4.689h-2.721
			c-0.622,2.041-1.259,3.699-1.92,4.974c-0.647,1.275-1.451,2.239-2.385,2.909c-0.92,0.668-2.111,1.114-3.577,1.361
			c-1.449,0.234-3.277,0.346-5.492,0.334c-1.322,0.012-2.359-0.012-3.098-0.111c-0.751-0.087-1.271-0.334-1.595-0.743
			c-0.321-0.408-0.518-1.088-0.596-2.028c-0.066-0.941-0.091-2.253-0.076-3.949v-7.424h2.722c1.683-0.025,3.004,0.123,3.939,0.433
			c0.918,0.309,1.605,0.878,2.02,1.732c0.428,0.854,0.727,2.08,0.882,3.7h2.409c-0.076-0.952-0.143-1.794-0.18-2.537
			c-0.054-0.742-0.079-1.461-0.104-2.152c-0.015-0.706-0.026-1.462-0.026-2.291c0-0.729,0.012-1.435,0.026-2.116
			c0.025-0.68,0.051-1.398,0.104-2.152c0.037-0.757,0.104-1.608,0.18-2.562H373.22z"/>
	</g>
	<path fill-rule="evenodd" clip-rule="evenodd" fill="#787878" d="M4.049,142.17c3.192-1.278,6.441-2.576,9.633-3.855
		c0,0,51.067-19.698,103.902-22.51c52.833-2.813,90.139,7.861,105.958,11.908c15.819,4.049,55.861,13.523,105.958,10.207
		c30.575-1.628,61.763-8.073,91.033-17.579c1.172-0.381,2.342-0.767,3.506-1.156v-18.931
		c-33.996,13.341-68.674,22.32-106.072,24.311c-47.084,2.507-94.425-9.602-94.425-9.602s-47.341-12.107-94.424-9.602
		c-47.083,2.506-92.591,19.554-92.591,19.554L4.049,137.306L0,138.877v4.835L4.049,142.17z"/>
</g>
<g id="cdr_x5F_layer3" display="none">
</g>
<g id="cdr_x5F_layer4" display="none">
</g>
<g id="MasterLayer_1">
</g>
</svg>
